{"glyphs":{"0":{"ha":769,"x_min":97,"x_max":746,"o":"m 446 669 q 317 600 365 669 q 256 400 268 531 q 279 200 243 269 q 396 131 315 131 q 525 200 475 131 q 588 400 575 269 q 564 600 600 531 q 446 669 528 669 m 460 813 q 595 783 539 813 q 685 699 651 753 q 733 568 719 644 q 738 400 746 492 q 702 233 729 308 q 630 103 675 157 q 523 18 585 49 q 382 -12 461 -12 q 247 18 303 -12 q 156 103 190 49 q 110 233 122 157 q 106 400 97 308 q 141 568 114 492 q 213 699 168 644 q 319 783 257 753 q 460 813 381 813 z "},"1":{"ha":444,"x_min":106,"x_max":404,"o":"m 404 794 l 329 0 l 181 0 l 238 596 q 106 563 167 564 l 121 719 q 204 743 163 726 q 293 794 246 760 l 404 794 z "},"2":{"ha":744,"x_min":74,"x_max":719,"o":"m 238 151 l 681 151 l 667 0 l 74 0 l 86 136 q 108 238 92 194 q 151 314 124 282 q 217 367 178 346 q 307 401 256 388 l 429 432 q 531 483 500 451 q 565 563 561 514 q 541 636 569 606 q 454 667 513 667 q 356 640 396 667 q 306 556 317 614 l 139 556 q 174 668 147 619 q 244 749 201 717 q 341 797 286 781 q 461 813 396 813 q 573 793 524 813 q 656 739 622 774 q 704 658 689 704 q 715 561 719 613 q 650 406 704 463 q 483 319 596 350 l 347 283 q 269 244 294 268 q 239 183 243 219 l 238 151 z "},"3":{"ha":738,"x_min":29,"x_max":685,"o":"m 417 813 q 534 793 483 813 q 619 740 585 774 q 669 662 653 707 q 679 565 685 617 q 634 446 672 494 q 532 369 596 397 q 639 271 604 338 q 665 117 674 204 q 633 4 660 56 q 560 -85 606 -47 q 456 -145 515 -124 q 325 -167 396 -167 q 207 -149 263 -167 q 111 -94 151 -131 q 50 -1 71 -57 q 36 132 29 56 l 188 132 q 228 10 185 49 q 339 -28 271 -28 q 406 -16 375 -28 q 461 17 438 -4 q 499 68 485 39 q 515 131 513 97 q 483 243 522 199 q 360 288 443 288 l 276 288 l 288 419 l 365 419 q 479 452 436 419 q 529 547 522 485 q 502 637 535 601 q 407 672 469 672 q 306 641 347 672 q 251 556 264 610 l 92 556 q 135 673 106 624 q 206 753 164 722 q 301 798 247 783 q 417 813 354 813 z "},"4":{"ha":747,"x_min":26,"x_max":743,"o":"m 658 799 l 603 210 l 743 210 l 731 67 l 589 67 l 569 -149 l 419 -149 l 439 67 l 26 67 l 39 193 l 513 799 l 658 799 m 203 193 l 458 193 l 493 556 l 203 193 z "},"5":{"ha":736,"x_min":74,"x_max":706,"o":"m 706 807 l 692 657 l 349 657 l 308 440 q 428 457 367 457 q 545 435 494 457 q 629 376 596 414 q 677 283 663 338 q 686 161 692 228 q 649 30 679 90 q 572 -74 619 -31 q 465 -142 525 -118 q 339 -167 406 -167 q 233 -147 283 -167 q 147 -90 183 -128 q 92 2 111 -53 q 81 128 74 57 l 228 128 q 258 21 222 57 q 357 -15 294 -15 q 423 -3 392 -15 q 478 33 454 10 q 518 88 503 56 q 536 161 533 121 q 504 281 544 238 q 372 324 464 324 l 143 324 l 226 807 l 706 807 z "},"6":{"ha":754,"x_min":83,"x_max":749,"o":"m 589 654 q 560 739 586 708 q 483 769 535 769 q 393 745 435 769 q 320 676 351 721 q 269 566 289 631 q 242 421 249 501 q 239 376 240 401 q 238 331 238 351 q 277 438 251 394 q 336 506 303 481 q 408 542 369 532 q 485 553 446 553 q 588 531 542 553 q 664 472 633 510 q 708 382 694 435 q 717 267 722 329 q 685 150 711 203 q 616 60 658 97 q 517 1 574 22 q 396 -19 461 -19 q 259 15 319 -19 q 158 109 199 49 q 101 253 118 169 q 93 436 83 338 q 140 642 106 553 q 226 794 174 732 q 345 888 278 856 q 492 919 413 919 q 601 901 553 919 q 683 847 650 882 q 732 763 715 813 q 744 654 749 714 l 589 654 m 436 418 q 333 378 378 418 q 282 276 289 339 q 315 170 278 208 q 411 132 351 132 q 513 170 469 132 q 564 276 557 208 q 533 381 571 343 q 436 418 496 418 z "},"7":{"ha":624,"x_min":31,"x_max":678,"o":"m 678 813 l 664 668 l 213 -144 l 31 -144 l 510 667 l 93 667 l 107 813 l 678 813 z "},"8":{"ha":810,"x_min":78,"x_max":786,"o":"m 490 919 q 613 900 557 919 q 708 847 668 881 q 767 765 747 813 q 782 661 786 717 q 727 539 775 593 q 599 469 679 485 l 607 467 q 735 380 692 431 q 769 239 779 329 q 738 135 765 182 q 663 53 710 88 q 549 0 615 19 q 403 -19 483 -19 q 263 1 324 -19 q 160 56 201 21 q 98 138 118 90 q 83 243 78 186 q 149 380 92 328 q 290 443 207 432 q 236 478 263 457 q 190 529 210 500 q 158 594 169 558 q 151 674 147 629 q 251 853 163 788 q 490 919 339 919 m 411 388 q 292 345 340 382 q 238 260 243 308 q 248 207 235 231 q 285 167 261 183 q 342 141 308 150 q 415 132 376 132 q 563 159 513 132 q 617 231 613 186 q 599 290 619 265 q 539 332 578 315 l 411 388 m 306 667 q 319 610 301 632 q 376 571 338 589 l 465 531 q 574 565 526 532 q 626 650 621 597 q 590 738 632 706 q 478 769 549 769 q 359 740 408 769 q 306 667 310 711 z "},"9":{"ha":757,"x_min":74,"x_max":735,"o":"m 428 813 q 575 772 514 813 q 672 663 636 731 q 722 508 708 594 q 726 329 735 421 q 682 120 715 213 q 598 -35 649 28 q 481 -133 547 -99 q 339 -167 415 -167 q 228 -146 278 -167 q 143 -87 178 -125 q 91 3 108 -50 q 81 118 74 56 l 236 118 q 263 20 233 56 q 354 -15 292 -15 q 443 10 404 -15 q 510 82 482 35 q 555 195 538 129 q 579 344 572 261 q 583 393 582 368 q 585 439 585 418 q 497 281 561 335 q 349 226 432 226 q 244 248 292 226 q 165 308 197 269 q 116 399 132 346 q 107 515 100 453 q 139 633 113 579 q 208 727 165 688 q 306 790 250 767 q 428 813 363 813 m 414 667 q 307 624 347 667 q 260 515 267 581 q 286 404 253 446 q 386 363 319 363 q 494 406 453 363 q 542 515 535 450 q 515 624 549 581 q 414 667 481 667 z "}," ":{"ha":313,"x_min":0,"x_max":0,"o":""},",":{"ha":363,"x_min":49,"x_max":313,"o":"m 206 192 q 285 148 258 192 q 306 40 313 104 q 290 -25 303 8 q 257 -90 278 -58 q 208 -149 236 -121 q 146 -194 179 -176 l 49 -132 q 124 -78 90 -108 q 172 -7 157 -47 q 116 25 138 0 q 99 90 94 50 q 133 163 103 133 q 206 192 164 192 z "},".":{"ha":281,"x_min":43,"x_max":253,"o":"m 158 208 q 228 177 203 208 q 249 97 253 146 q 213 18 244 49 q 138 -12 182 -12 q 68 18 93 -12 q 50 97 43 49 q 83 177 53 146 q 158 208 114 208 z "},";":{"ha":358,"x_min":44,"x_max":350,"o":"m 201 192 q 281 148 254 192 q 301 40 308 104 q 286 -25 299 8 q 253 -90 274 -58 q 203 -149 232 -121 q 142 -194 175 -176 l 44 -132 q 119 -78 86 -108 q 168 -7 153 -47 q 112 25 133 0 q 94 90 90 50 q 129 163 99 133 q 201 192 160 192 m 256 686 q 325 655 300 686 q 346 575 350 624 q 310 496 342 526 q 235 465 279 465 q 165 496 190 465 q 147 575 140 526 q 181 655 150 624 q 256 686 211 686 z "},":":{"ha":325,"x_min":68,"x_max":321,"o":"m 224 688 q 294 656 268 688 q 317 575 321 624 q 279 497 311 528 q 203 467 247 467 q 135 497 160 467 q 117 575 111 528 q 151 656 121 624 q 224 688 181 688 m 181 208 q 250 177 224 208 q 271 97 276 146 q 235 18 268 49 q 160 -12 203 -12 q 92 18 115 -12 q 72 97 68 49 q 106 177 76 146 q 181 208 136 208 z "},"‘":{"ha":331,"x_min":106,"x_max":371,"o":"m 213 563 q 133 606 160 563 q 113 714 106 650 q 163 846 118 782 q 278 949 208 910 l 371 886 q 294 831 328 863 q 246 760 260 800 q 301 728 279 753 q 318 664 322 704 q 285 591 315 619 q 213 563 254 563 z "},"’":{"ha":331,"x_min":103,"x_max":368,"o":"m 263 949 q 342 904 315 949 q 361 796 368 860 q 310 665 356 729 q 196 563 265 601 l 103 625 q 181 680 147 649 q 229 751 214 711 q 173 781 194 756 q 156 847 151 807 q 190 919 160 890 q 263 949 219 949 z "},"'":{"ha":240,"x_min":129,"x_max":285,"o":"m 285 989 l 233 647 l 129 647 l 142 989 l 285 989 z "},"-":{"ha":485,"x_min":104,"x_max":465,"o":"m 465 508 l 451 367 l 104 367 l 115 508 l 465 508 z "},"–":{"ha":647,"x_min":104,"x_max":626,"o":"m 626 508 l 614 367 l 104 367 l 115 508 l 626 508 z "},"—":{"ha":954,"x_min":104,"x_max":933,"o":"m 933 508 l 919 367 l 104 367 l 115 508 l 933 508 z "},"!":{"ha":363,"x_min":92,"x_max":351,"o":"m 351 964 l 278 313 l 150 313 l 200 964 l 351 964 m 204 208 q 274 177 249 208 q 297 97 300 146 q 260 18 290 49 q 185 -12 229 -12 q 117 18 142 -12 q 96 97 92 49 q 132 177 101 146 q 204 208 163 208 z "},"?":{"ha":651,"x_min":103,"x_max":676,"o":"m 419 940 q 527 924 481 940 q 606 878 574 907 q 656 810 639 849 q 675 728 672 771 q 676 699 676 713 q 672 669 675 685 q 618 553 661 600 q 503 464 575 507 q 456 434 475 449 q 425 403 438 419 q 406 369 413 388 q 396 325 399 350 l 394 299 l 261 299 l 267 342 q 280 417 271 386 q 306 472 289 449 q 348 515 322 496 q 410 554 374 535 q 465 588 443 572 q 499 618 486 603 q 517 650 511 633 q 526 686 524 667 q 502 764 532 731 q 413 797 472 797 q 308 763 347 797 q 254 676 268 729 l 103 676 q 140 788 113 739 q 208 870 167 836 q 303 922 250 904 q 419 940 357 940 m 331 207 q 402 176 375 207 q 426 97 429 146 q 390 18 424 49 q 310 -12 356 -12 q 238 18 264 -12 q 215 97 213 49 q 252 176 219 146 q 331 207 285 207 z "},"/":{"ha":563,"x_min":67,"x_max":653,"o":"m 497 1039 l 653 1039 l 218 -115 l 67 -115 l 497 1039 z "},"\\":{"ha":563,"x_min":82,"x_max":668,"o":"m 82 1040 l 233 1040 l 668 -114 l 513 -114 l 82 1040 z "},"+":{"ha":768,"x_min":94,"x_max":740,"o":"m 522 717 l 494 431 l 740 431 l 726 288 l 482 288 l 456 0 l 314 0 l 340 288 l 94 288 l 108 431 l 353 431 l 381 717 l 522 717 z "},"−":{"ha":629,"x_min":125,"x_max":571,"o":"m 571 428 l 557 283 l 125 283 l 138 428 l 571 428 z "},"=":{"ha":629,"x_min":111,"x_max":585,"o":"m 557 288 l 544 144 l 111 144 l 125 288 l 557 288 m 585 590 l 572 447 l 140 447 l 153 590 l 585 590 z "},"(":{"ha":440,"x_min":96,"x_max":444,"o":"m 444 836 q 310 608 354 724 q 253 364 265 492 q 263 122 240 238 q 356 -106 286 7 l 238 -179 q 127 83 158 -53 q 108 364 96 218 q 181 646 124 510 q 342 907 238 782 l 444 836 z "},")":{"ha":431,"x_min":67,"x_max":414,"o":"m 271 907 q 382 646 350 782 q 400 364 414 510 q 167 -179 372 71 l 67 -106 q 199 122 154 7 q 256 364 243 238 q 244 608 267 492 q 156 836 222 724 l 271 907 z "},"[":{"ha":472,"x_min":121,"x_max":556,"o":"m 249 1117 l 556 1117 l 540 972 l 376 972 l 276 -49 l 440 -49 l 426 -193 l 121 -193 l 249 1117 z "},"]":{"ha":458,"x_min":-18,"x_max":426,"o":"m 288 -193 l -18 -193 l -3 -49 l 163 -49 l 269 972 l 106 972 l 121 1117 l 426 1117 l 288 -193 z "},"_":{"ha":974,"x_min":49,"x_max":899,"o":"m 63 -57 l 899 -57 l 885 -203 l 49 -203 l 63 -57 z "},"@":{"ha":1292,"x_min":75,"x_max":1272,"o":"m 776 363 q 769 424 779 399 q 724 449 758 449 q 670 435 699 449 q 617 395 642 421 q 574 332 592 369 q 551 249 556 294 q 570 153 546 190 q 635 115 594 115 q 705 147 676 115 q 764 231 733 178 l 776 363 m 789 899 q 992 861 900 899 q 1147 756 1083 824 q 1242 592 1211 688 q 1261 383 1272 497 q 1222 218 1253 292 q 1144 94 1190 144 q 1038 15 1097 43 q 915 -12 979 -12 q 757 101 792 -12 q 691 18 729 49 q 589 -12 653 -12 q 513 7 549 -12 q 450 60 476 26 q 410 142 424 94 q 401 244 396 189 q 440 380 408 317 q 518 490 471 443 q 624 565 565 538 q 743 592 682 592 q 877 534 826 592 q 917 365 928 476 l 901 189 q 942 115 896 115 q 992 132 964 115 q 1044 181 1019 149 q 1087 261 1068 213 q 1111 374 1106 310 q 1099 526 1118 456 q 1038 647 1081 596 q 928 726 994 697 q 774 756 861 756 q 583 718 675 756 q 416 614 490 681 q 293 456 342 547 q 233 254 244 364 q 250 70 224 151 q 335 -67 276 -11 q 482 -153 393 -124 q 686 -183 571 -183 l 672 -322 q 427 -282 540 -322 q 234 -165 314 -242 q 115 24 154 -87 q 89 281 75 136 q 163 528 101 414 q 319 724 224 642 q 535 852 414 806 q 789 899 657 899 z "},"\"":{"ha":503,"x_min":121,"x_max":551,"o":"m 290 953 l 238 617 l 121 617 l 131 953 l 290 953 m 551 953 l 499 617 l 381 617 l 392 953 l 551 953 z "},"#":{"ha":864,"x_min":92,"x_max":868,"o":"m 519 225 l 349 225 l 315 47 l 171 47 l 204 225 l 92 225 l 113 340 l 225 340 l 265 553 l 153 553 l 174 669 l 288 669 l 322 847 l 468 847 l 433 669 l 603 669 l 638 847 l 781 847 l 746 669 l 868 669 l 846 553 l 724 553 l 683 340 l 807 340 l 785 225 l 661 225 l 628 47 l 486 47 l 519 225 m 371 340 l 540 340 l 581 553 l 411 553 l 371 340 z "},"$":{"ha":879,"x_min":118,"x_max":819,"o":"m 622 483 q 768 396 718 450 q 810 246 818 342 q 781 151 806 194 q 715 74 756 107 q 617 18 674 40 q 494 -10 561 -4 l 482 -150 l 369 -150 l 382 -8 q 276 18 325 -3 q 190 76 226 39 q 136 169 154 114 q 125 299 118 224 l 267 299 q 292 181 263 232 q 394 115 321 131 l 421 403 l 356 431 q 211 529 253 471 q 178 676 169 588 q 206 771 182 729 q 270 843 231 813 q 361 892 310 874 q 471 917 413 910 l 483 1053 l 596 1053 l 583 918 q 676 892 633 911 q 751 840 719 874 q 801 758 782 807 q 819 643 819 710 l 679 643 q 649 740 676 701 q 571 793 622 779 l 544 510 l 622 483 m 660 239 q 578 346 665 313 l 531 363 l 507 114 q 616 160 576 125 q 660 239 656 194 m 326 676 q 343 607 322 632 q 407 564 364 582 l 436 553 l 458 793 q 364 749 397 781 q 326 676 331 717 z "},"%":{"ha":968,"x_min":132,"x_max":931,"o":"m 336 928 q 401 915 371 928 q 453 875 432 901 q 485 808 475 849 q 490 714 496 768 q 467 620 485 660 q 424 554 450 581 q 364 515 397 528 q 296 501 331 501 q 231 515 261 501 q 179 554 200 528 q 148 620 158 581 q 143 714 138 660 q 210 875 154 822 q 336 928 267 928 m 325 815 q 283 794 300 815 q 261 714 265 772 q 268 635 256 657 q 306 614 281 614 q 348 635 331 614 q 372 714 365 657 q 363 794 376 772 q 325 815 350 815 m 771 908 l 931 908 l 293 0 l 132 0 l 771 908 m 765 407 q 831 394 800 407 q 883 354 861 381 q 915 288 904 328 q 921 194 925 249 q 897 100 915 140 q 852 33 879 60 q 792 -6 825 7 q 725 -19 760 -19 q 660 -6 690 -19 q 608 33 629 7 q 576 100 586 60 q 571 194 565 140 q 594 288 576 249 q 639 354 613 328 q 698 394 665 381 q 765 407 731 407 m 754 297 q 713 274 729 297 q 690 194 696 250 q 697 115 685 138 q 735 93 710 93 q 778 115 760 93 q 800 194 796 138 q 793 274 807 250 q 754 297 779 297 z "},"&":{"ha":1074,"x_min":101,"x_max":1060,"o":"m 1060 235 q 995 55 1047 122 q 847 -12 943 -12 q 742 11 790 -12 q 643 92 693 35 q 519 14 583 40 q 378 -12 454 -12 q 265 6 317 -12 q 176 59 214 25 q 120 140 139 93 q 107 246 101 188 q 326 472 124 424 q 267 582 286 529 q 254 694 247 635 q 281 783 258 742 q 338 854 303 824 q 423 903 374 885 q 531 921 472 921 q 628 901 585 921 q 699 850 671 882 q 741 777 728 818 q 750 692 754 736 q 693 547 743 608 q 542 439 643 485 l 664 294 q 806 513 738 385 l 901 450 q 822 314 861 376 q 743 200 783 251 l 760 181 q 806 138 788 150 q 849 126 825 126 q 903 155 881 126 q 932 235 926 183 l 1060 235 m 250 246 q 278 160 244 194 q 381 125 313 125 q 558 192 471 125 l 401 381 q 288 328 322 364 q 250 246 254 293 m 607 683 q 586 754 610 725 q 519 783 563 783 q 441 753 472 783 q 406 679 410 722 q 447 553 400 608 l 471 524 q 568 594 535 556 q 607 683 601 632 z "},"*":{"ha":510,"x_min":133,"x_max":531,"o":"m 267 739 l 133 789 l 183 892 l 299 822 l 299 985 l 404 985 l 374 822 l 501 893 l 531 789 l 392 739 l 488 628 l 403 554 l 325 692 l 218 554 l 149 628 l 267 739 z "},"<":{"ha":643,"x_min":92,"x_max":647,"o":"m 647 732 l 260 450 l 594 169 l 483 35 l 92 372 l 106 528 l 563 865 l 647 732 z "},">":{"ha":643,"x_min":71,"x_max":635,"o":"m 242 872 l 635 533 l 619 372 l 164 35 l 71 169 l 461 453 l 125 738 l 242 872 z "},"^":{"ha":683,"x_min":51,"x_max":690,"o":"m 51 294 l 358 843 l 488 843 l 690 294 l 514 294 l 403 633 l 228 294 l 51 294 z "},"{":{"ha":500,"x_min":156,"x_max":621,"o":"m 494 -222 q 347 -196 406 -222 q 254 -123 288 -169 q 210 -11 221 -76 q 207 133 200 54 l 219 260 q 219 338 226 317 q 189 360 213 360 l 156 360 l 172 539 l 206 539 q 240 560 229 539 q 256 638 250 581 l 268 765 q 299 908 276 843 q 363 1020 321 974 q 469 1093 406 1067 q 621 1119 532 1119 l 608 981 q 469 934 517 981 q 413 783 422 888 l 396 629 q 360 518 389 563 q 293 453 332 474 l 292 444 q 349 381 328 425 q 363 269 369 336 l 349 114 q 378 -35 339 11 q 508 -82 417 -82 l 494 -222 z "},"|":{"ha":369,"x_min":99,"x_max":357,"o":"m 214 1076 l 357 1076 l 239 -169 l 99 -169 l 214 1076 z "},"}":{"ha":492,"x_min":-44,"x_max":421,"o":"m 82 1119 q 229 1093 171 1119 q 321 1020 288 1067 q 365 908 354 974 q 369 764 376 843 l 357 638 q 357 559 350 581 q 388 538 364 538 l 421 538 l 404 358 l 371 358 q 337 338 347 358 q 321 260 326 317 l 308 132 q 278 -11 300 54 q 213 -124 256 -76 q 108 -197 171 -171 q -44 -222 44 -222 l -32 -83 q 107 -37 60 -83 q 164 114 154 10 l 181 268 q 216 379 188 335 q 283 444 244 424 l 285 453 q 228 517 249 472 q 214 628 207 561 l 228 783 q 199 933 238 886 q 68 979 160 979 l 82 1119 z "},"~":{"ha":728,"x_min":103,"x_max":701,"o":"m 183 278 l 103 329 q 178 476 133 421 q 290 532 224 532 q 348 522 318 532 q 422 493 378 513 q 489 466 464 474 q 533 458 514 458 q 621 533 582 458 l 701 474 q 615 335 665 382 q 504 289 565 289 q 453 298 482 289 q 379 328 424 307 q 313 354 336 346 q 271 363 290 363 q 225 342 247 363 q 183 278 203 322 z "},"£":{"ha":742,"x_min":46,"x_max":731,"o":"m 58 135 l 101 135 q 167 164 146 135 q 196 254 189 193 l 207 374 l 104 374 l 115 492 l 218 492 l 231 632 q 317 850 244 779 q 506 921 390 921 q 660 860 606 921 q 717 688 715 799 l 575 688 q 552 753 575 729 q 493 778 529 778 q 415 742 449 778 q 374 632 381 707 l 358 492 l 588 492 l 575 374 l 347 374 l 336 267 q 322 190 332 222 q 288 135 311 158 l 444 135 q 536 161 507 135 q 575 240 565 188 l 731 240 q 697 138 718 183 q 640 63 675 93 q 553 16 604 32 q 431 0 501 0 l 46 0 l 58 135 z "},"ʼ":{"ha":313,"x_min":99,"x_max":390,"o":"m 153 814 q 192 890 158 860 q 274 919 225 919 q 361 874 332 919 q 383 761 390 828 q 367 693 381 728 q 331 626 353 658 q 278 567 308 594 q 213 521 249 539 l 99 588 q 181 641 144 610 q 233 711 218 672 q 174 745 197 719 q 153 814 150 771 z "},"₨":{"ha":763,"x_min":132,"x_max":761,"o":"m 186 908 l 761 908 l 753 811 l 532 811 q 600 683 592 763 l 740 683 l 732 585 l 594 585 q 513 435 575 497 q 335 351 450 372 l 624 0 l 415 0 l 132 342 l 142 440 l 231 440 q 376 480 324 440 q 444 585 428 519 l 154 585 l 164 683 l 451 683 q 397 776 442 740 q 267 811 353 811 l 178 811 l 186 908 z "},"௦":{"ha":697,"x_min":89,"x_max":688,"o":"m 408 575 q 244 353 265 575 q 367 131 224 131 q 533 353 510 131 q 408 575 553 575 m 422 719 q 550 692 497 719 q 634 617 603 665 q 676 501 665 569 q 681 353 688 433 q 648 203 672 271 q 583 88 624 136 q 486 14 543 40 q 354 -12 429 -12 q 226 14 279 -12 q 142 88 174 40 q 100 203 111 136 q 97 353 89 271 q 129 501 106 433 q 194 617 153 569 q 292 692 235 665 q 422 719 349 719 z "},"௧":{"ha":985,"x_min":71,"x_max":961,"o":"m 367 399 l 542 399 l 557 567 l 383 567 l 367 399 m 288 300 q 240 284 260 300 q 219 232 219 268 q 265 151 219 183 q 394 118 311 118 q 528 249 514 118 l 533 300 l 288 300 m 882 710 l 868 567 l 699 567 l 682 399 l 760 399 q 906 355 851 399 q 961 231 961 311 q 912 83 961 147 q 778 -12 863 18 l 704 104 q 783 147 751 115 q 814 226 814 179 q 793 281 814 261 q 732 300 772 300 l 674 300 l 668 249 q 581 50 654 113 q 397 -12 507 -12 q 258 10 319 -12 q 156 68 197 32 q 92 149 114 104 q 71 239 71 193 q 114 356 71 314 q 229 399 157 399 l 236 399 l 267 710 l 882 710 z "},"௨":{"ha":1065,"x_min":108,"x_max":1063,"o":"m 444 722 q 561 701 508 722 q 651 644 614 681 q 705 556 688 607 q 717 443 722 504 q 633 246 706 326 q 413 135 561 165 l 1063 135 l 1050 0 l 110 0 l 108 157 q 253 173 182 157 q 372 213 324 189 q 342 204 357 206 q 315 204 328 203 q 233 231 271 213 q 167 278 194 249 q 127 347 140 307 q 119 436 114 386 q 153 553 125 500 q 224 643 181 606 q 324 701 268 681 q 444 722 381 722 m 429 578 q 316 534 360 578 q 265 425 272 490 q 272 360 263 389 q 299 312 281 332 q 343 281 317 292 q 401 271 369 271 q 515 311 469 271 q 567 424 560 351 q 537 533 574 489 q 429 578 500 578 z "},"௩":{"ha":992,"x_min":115,"x_max":990,"o":"m 811 710 l 796 567 l 660 567 l 646 419 l 718 419 q 850 380 803 419 q 890 264 897 340 q 818 143 882 183 l 990 143 l 976 0 l 475 0 l 489 143 l 633 143 q 710 170 685 143 q 739 233 735 197 q 726 291 742 267 q 665 315 710 315 l 497 315 l 519 567 l 310 567 l 257 0 l 115 0 l 183 710 l 811 710 z "},"௫":{"ha":1092,"x_min":72,"x_max":1072,"o":"m 1072 710 l 1032 300 l 674 300 l 668 249 q 581 50 654 113 q 397 -12 507 -12 q 259 10 319 -12 q 157 67 199 32 q 94 148 115 103 q 72 239 72 193 q 113 354 72 310 q 229 399 154 399 l 236 399 l 267 710 l 817 710 l 803 567 l 699 567 l 682 399 l 900 399 l 931 710 l 1072 710 m 288 300 q 240 284 260 300 q 219 232 219 268 q 265 151 219 183 q 394 118 311 118 q 528 249 515 118 l 533 300 l 288 300 m 367 399 l 542 399 l 557 567 l 383 567 l 367 399 z "},"௬":{"ha":1383,"x_min":81,"x_max":1354,"o":"m 1156 710 l 1143 567 l 1004 567 l 982 313 q 1055 400 1010 371 q 1158 429 1100 429 q 1239 409 1201 429 q 1303 351 1276 389 q 1342 258 1329 314 q 1349 132 1354 203 q 1289 -72 1338 19 q 1158 -227 1240 -162 q 964 -326 1076 -292 q 714 -361 851 -361 q 443 -322 564 -361 q 240 -206 322 -282 q 119 -17 158 -129 q 94 238 81 94 q 147 478 107 361 q 250 718 188 594 l 381 674 q 289 449 324 551 q 243 238 254 347 q 260 37 232 121 q 350 -103 288 -47 q 508 -185 413 -158 q 728 -211 603 -211 q 901 -190 818 -211 q 1047 -126 983 -169 q 1152 -19 1111 -83 q 1200 132 1193 44 q 1182 251 1208 211 q 1108 292 1156 292 q 1010 233 1053 292 q 958 72 968 174 l 953 0 l 811 0 l 865 567 l 654 567 l 603 0 l 461 0 l 529 710 l 1156 710 z "},"௭":{"ha":1360,"x_min":68,"x_max":1363,"o":"m 882 710 l 868 567 l 699 567 l 682 399 l 1363 399 l 1354 292 l 1250 292 l 1224 0 l 1082 0 l 1108 292 l 944 292 l 917 0 l 776 0 l 803 292 l 674 292 l 668 249 q 639 131 661 181 q 581 50 617 82 q 498 3 544 18 q 397 -12 451 -12 q 252 12 315 -12 q 147 75 189 36 q 87 162 106 114 q 72 258 68 210 q 122 362 79 325 q 231 399 164 399 l 236 399 l 267 710 l 882 710 m 288 300 q 219 240 225 300 q 261 154 215 190 q 394 118 307 118 q 528 249 515 118 l 533 300 l 288 300 m 367 399 l 542 399 l 557 567 l 383 567 l 367 399 z "},"௪":{"ha":1057,"x_min":88,"x_max":1096,"o":"m 1096 710 l 1081 567 l 949 567 l 897 0 l 756 0 l 808 567 l 604 567 q 473 547 536 567 q 360 491 410 528 q 277 402 310 454 q 239 285 244 350 q 248 185 232 222 q 294 126 264 147 q 297 196 293 160 q 314 267 300 232 q 388 381 336 333 q 518 429 440 429 q 595 414 561 429 q 651 371 629 399 q 682 305 672 343 q 688 221 692 267 q 658 128 682 171 q 597 53 635 85 q 507 5 558 22 q 396 -12 456 -12 q 276 11 333 -12 q 175 78 218 35 q 110 181 132 121 q 94 313 88 240 q 145 469 103 397 q 256 595 188 542 q 417 679 325 649 q 618 710 510 710 l 1096 710 m 482 292 q 418 263 446 292 q 379 193 390 233 q 372 111 368 149 q 387 109 379 110 q 403 108 394 108 q 447 114 424 108 q 489 133 469 119 q 523 167 508 146 q 540 218 538 188 q 529 271 543 250 q 482 292 515 292 z "},"௮":{"ha":1165,"x_min":53,"x_max":1113,"o":"m 521 722 q 660 694 601 722 q 756 619 718 665 q 812 513 794 572 q 828 392 829 454 l 940 392 l 971 711 l 1113 711 l 1046 0 l 904 0 l 932 292 l 814 292 q 769 180 799 235 q 690 82 739 125 q 571 13 640 39 q 408 -12 501 -12 q 253 10 321 -12 q 141 69 186 32 q 74 156 96 107 q 58 257 53 204 q 110 360 65 328 q 228 392 156 392 l 293 392 q 259 446 269 414 q 253 515 249 478 q 278 599 257 561 q 335 665 300 638 q 418 707 371 692 q 521 722 465 722 m 422 131 q 585 176 526 131 q 665 292 643 221 l 265 292 q 222 278 238 292 q 206 242 207 265 q 214 202 203 222 q 251 166 225 182 q 319 140 276 150 q 422 131 361 131 m 394 482 q 410 420 392 446 q 465 392 429 394 l 681 392 q 635 524 679 471 q 519 578 592 578 q 431 552 465 578 q 394 482 397 526 z "},"௯":{"ha":1522,"x_min":68,"x_max":1490,"o":"m 857 710 l 843 567 l 699 567 l 682 399 l 821 399 q 883 503 844 457 q 969 583 921 550 q 1075 634 1018 617 q 1193 651 1132 651 q 1332 621 1274 651 q 1426 538 1390 590 q 1476 418 1463 486 q 1483 275 1490 350 q 1451 131 1476 204 q 1386 -11 1426 58 l 1260 61 q 1317 178 1300 119 q 1339 282 1335 238 q 1335 373 1343 332 q 1305 444 1326 414 q 1247 492 1283 475 q 1161 508 1211 508 q 1047 479 1101 508 q 953 399 992 450 l 1024 399 q 1106 384 1069 399 q 1167 343 1143 369 q 1203 280 1192 317 q 1211 200 1215 243 q 1190 118 1207 157 q 1144 50 1172 79 q 1076 4 1115 21 q 988 -12 1036 -12 q 902 7 942 -12 q 835 62 863 26 q 795 148 808 97 q 788 260 782 199 q 790 279 789 269 q 793 300 790 289 l 674 300 l 668 249 q 581 50 654 113 q 397 -12 507 -12 q 252 12 315 -12 q 147 75 189 36 q 87 162 106 114 q 72 258 68 210 q 122 362 79 325 q 231 399 164 399 l 236 399 l 267 710 l 857 710 m 288 300 q 240 285 258 300 q 219 240 222 271 q 261 154 215 190 q 394 118 307 118 q 528 249 515 118 l 533 300 l 288 300 m 367 399 l 542 399 l 557 567 l 383 567 l 367 399 m 919 300 q 915 275 917 288 q 913 250 914 263 q 930 148 906 182 q 999 114 954 114 q 1065 140 1038 114 q 1097 208 1092 165 q 1076 276 1100 253 q 1006 300 1053 300 l 919 300 z "},"௰":{"ha":1114,"x_min":129,"x_max":1121,"o":"m 639 1068 q 862 1024 768 1068 q 1015 901 956 979 q 1097 716 1074 824 q 1110 482 1121 608 q 1067 288 1099 378 q 984 131 1035 197 q 866 26 933 64 q 718 -12 799 -12 q 583 21 638 -12 q 507 126 529 54 q 438 26 483 65 q 324 -12 392 -12 q 242 3 279 -12 q 178 52 204 19 q 141 135 153 85 q 136 256 129 186 l 181 710 l 321 710 l 281 269 q 299 163 272 196 q 369 131 325 131 q 451 174 422 132 q 488 286 481 215 l 526 710 l 668 710 l 628 275 q 646 164 619 197 q 731 131 672 131 q 808 156 769 131 q 878 229 846 182 q 932 340 910 276 q 961 482 954 404 q 893 812 981 699 q 626 925 806 925 q 535 917 582 925 q 429 889 488 908 l 375 1039 q 513 1062 447 1056 q 639 1068 578 1068 z "},"௱":{"ha":1146,"x_min":114,"x_max":1183,"o":"m 1183 710 l 1169 567 l 1039 567 l 986 0 l 844 0 l 897 567 l 688 567 l 636 0 l 494 0 l 529 379 q 528 471 535 433 q 508 532 522 508 q 472 567 493 556 q 425 578 450 578 q 338 541 372 578 q 296 425 303 504 l 256 0 l 114 0 l 157 474 q 182 583 163 536 q 232 660 201 629 q 301 707 263 692 q 385 722 340 722 q 488 685 447 722 q 549 576 529 647 l 561 710 l 1183 710 z "},"௲":{"ha":1431,"x_min":68,"x_max":1406,"o":"m 882 710 l 868 567 l 699 567 l 682 399 l 1304 399 l 1296 292 l 1171 292 l 1161 179 l 1181 179 q 1345 124 1285 179 q 1396 -39 1406 69 q 1360 -158 1389 -104 q 1282 -249 1331 -211 q 1166 -309 1233 -287 q 1015 -331 1099 -331 l 801 -331 q 758 -368 763 -331 q 781 -429 754 -397 l 692 -478 q 649 -416 665 -451 q 636 -340 632 -381 q 674 -260 640 -289 q 760 -231 707 -231 l 1025 -231 q 1122 -216 1081 -231 q 1193 -176 1164 -201 q 1238 -115 1222 -150 q 1257 -39 1254 -81 q 1241 49 1264 19 q 1171 78 1218 78 l 1151 78 l 1149 49 q 1131 -25 1146 10 q 1088 -85 1115 -60 q 1020 -126 1061 -111 q 925 -142 979 -142 q 832 -126 876 -142 q 755 -83 788 -111 q 705 -17 722 -56 q 692 67 688 21 q 736 153 697 128 q 824 179 775 179 l 1021 179 l 1031 292 l 674 292 l 668 249 q 639 131 661 181 q 581 50 617 82 q 498 3 544 18 q 397 -12 451 -12 q 252 12 315 -12 q 147 75 189 36 q 87 162 106 114 q 72 258 68 210 q 122 362 79 325 q 231 399 164 399 l 236 399 l 267 710 l 882 710 m 288 300 q 219 240 225 300 q 261 154 215 190 q 394 118 307 118 q 528 249 515 118 l 533 300 l 288 300 m 378 399 l 542 399 l 557 567 l 394 567 l 378 399 m 847 81 q 819 69 829 81 q 806 40 808 58 q 813 8 804 24 q 836 -18 821 -7 q 871 -36 851 -29 q 913 -43 890 -43 q 983 -17 963 -43 q 1008 46 1004 10 l 1011 81 l 847 81 z "},"்":{"ha":249,"x_min":121,"x_max":301,"o":"m 124 936 q 156 1007 129 979 q 219 1035 183 1035 q 279 1007 257 1035 q 297 936 301 979 q 266 871 294 899 q 200 843 238 843 q 143 871 165 843 q 124 936 121 899 z "},"ஂ":{"ha":407,"x_min":113,"x_max":482,"o":"m 313 1165 q 438 1119 393 1165 q 474 993 482 1074 q 413 868 467 914 q 281 822 360 822 q 157 868 201 822 q 119 993 113 914 q 181 1119 128 1074 q 313 1165 233 1165 m 303 1058 q 263 1040 278 1058 q 244 993 247 1022 q 290 932 238 932 q 350 993 343 932 q 340 1040 353 1022 q 303 1058 328 1058 z "},"ஃ":{"ha":963,"x_min":54,"x_max":949,"o":"m 567 919 q 646 903 610 919 q 706 858 682 888 q 742 785 731 828 q 747 692 753 743 q 724 599 743 640 q 674 527 704 557 q 606 481 644 497 q 524 465 567 465 q 445 481 481 465 q 386 527 410 497 q 351 599 363 557 q 344 692 340 640 q 368 785 349 743 q 417 858 388 828 q 485 903 447 888 q 567 919 524 919 m 281 440 q 359 424 324 440 q 419 379 394 408 q 454 308 443 350 q 460 215 465 267 q 436 121 456 163 q 388 49 417 79 q 320 3 358 19 q 239 -12 282 -12 q 159 3 194 -12 q 100 49 124 19 q 65 121 76 79 q 58 215 54 163 q 83 308 64 267 q 131 379 101 350 q 198 424 160 408 q 281 440 236 440 m 764 440 q 842 424 807 440 q 902 379 878 408 q 938 308 926 350 q 943 215 949 267 q 920 121 939 163 q 872 49 901 79 q 804 3 843 19 q 722 -12 765 -12 q 642 3 678 -12 q 583 49 607 19 q 547 121 558 79 q 540 215 536 163 q 614 380 551 319 q 764 440 676 440 m 269 319 q 222 295 242 319 q 194 215 201 271 q 206 134 190 160 q 250 108 222 108 q 298 134 276 108 q 325 215 319 160 q 314 295 331 271 q 269 319 297 319 m 756 319 q 707 295 728 319 q 679 215 686 271 q 691 134 675 160 q 735 108 707 108 q 783 134 763 108 q 810 215 803 160 q 799 295 815 271 q 756 319 782 319 m 557 797 q 508 773 529 797 q 483 692 488 749 q 493 612 478 636 q 536 588 508 588 q 585 612 564 588 q 611 692 607 636 q 601 773 618 749 q 557 797 583 797 z "},"அ":{"ha":1229,"x_min":50,"x_max":1176,"o":"m 574 722 q 705 694 646 722 q 806 617 764 665 q 869 508 847 569 q 890 382 892 447 l 1004 382 l 1035 711 l 1176 711 l 1108 0 l 968 0 l 994 285 l 878 285 q 744 69 847 150 q 460 -12 640 -12 q 282 13 360 -12 q 152 79 204 39 q 75 167 100 119 q 54 261 50 215 q 100 352 60 322 q 206 382 140 382 l 297 382 q 269 489 263 425 q 300 582 274 539 q 368 656 326 625 q 463 705 410 688 q 574 722 515 722 m 469 118 q 658 162 583 118 q 763 285 733 206 l 258 285 q 197 238 201 285 q 208 195 194 217 q 253 156 221 174 q 338 128 285 139 q 469 118 390 118 m 556 508 q 558 547 558 528 q 550 588 557 567 q 488 574 517 585 q 438 549 460 564 q 403 512 417 533 q 389 464 390 490 q 404 405 386 428 q 451 382 422 382 q 523 419 496 382 q 556 508 550 456 m 636 485 q 624 428 633 454 q 600 382 614 401 l 779 382 q 736 513 779 458 q 624 583 693 568 q 635 537 631 561 q 636 485 639 513 z "},"ஆ":{"ha":1542,"x_min":50,"x_max":1511,"o":"m 574 722 q 705 694 646 722 q 806 617 764 665 q 869 508 847 569 q 890 382 892 447 l 1004 382 l 1035 711 l 1176 711 l 1139 313 q 1213 401 1168 372 q 1314 429 1257 429 q 1401 407 1363 429 q 1464 347 1439 385 q 1500 257 1489 308 q 1506 146 1511 206 q 1455 -21 1497 54 q 1345 -149 1413 -96 q 1190 -231 1278 -203 q 1000 -260 1101 -260 q 873 -246 938 -260 q 750 -206 808 -232 l 765 -44 q 892 -98 828 -81 q 1013 -115 956 -115 q 1144 -97 1083 -115 q 1251 -44 1206 -78 q 1323 39 1296 -10 q 1356 146 1350 88 q 1335 256 1364 219 q 1265 292 1307 292 q 1167 233 1208 292 q 1115 72 1125 174 l 1108 0 l 968 0 l 994 285 l 878 285 q 744 69 847 150 q 460 -12 640 -12 q 282 13 360 -12 q 152 79 204 39 q 75 167 100 119 q 54 261 50 215 q 100 352 60 322 q 206 382 140 382 l 297 382 q 269 489 263 425 q 300 582 274 539 q 368 656 326 625 q 463 705 410 688 q 574 722 515 722 m 469 118 q 658 162 583 118 q 763 285 733 206 l 258 285 q 197 238 201 285 q 208 195 194 217 q 253 156 221 174 q 338 128 285 139 q 469 118 390 118 m 556 508 q 558 547 558 528 q 550 588 557 567 q 488 574 517 585 q 438 549 460 564 q 403 512 417 533 q 389 464 390 490 q 404 405 386 428 q 451 382 422 382 l 456 382 q 524 420 499 385 q 556 508 550 456 m 636 485 q 624 428 633 454 q 600 382 614 401 l 779 382 q 737 513 779 458 q 625 583 694 568 q 636 485 639 538 z "},"இ":{"ha":1288,"x_min":32,"x_max":1267,"o":"m 761 1036 q 988 984 890 1036 q 1150 842 1086 932 q 1240 633 1214 753 q 1254 375 1267 513 l 1236 181 l 1118 181 l 1135 361 q 1125 585 1146 486 q 1054 752 1104 683 q 927 858 1004 821 q 750 894 850 894 q 565 860 650 894 q 415 765 479 826 q 310 619 350 704 q 260 435 269 535 q 259 344 256 386 q 272 265 263 303 q 296 194 281 228 q 329 128 311 161 q 479 165 394 151 q 649 179 564 179 q 739 174 697 179 q 824 160 781 169 q 849 237 839 196 q 863 314 860 278 q 845 488 871 407 q 757 611 819 568 q 770 541 767 579 q 771 471 774 503 q 751 399 767 432 q 713 340 736 365 q 657 301 689 315 q 586 288 625 288 q 514 301 546 288 q 460 339 482 314 q 427 399 438 364 q 421 478 417 435 q 451 578 426 533 q 514 654 476 624 q 599 701 551 685 q 700 718 647 718 q 824 687 769 718 q 916 601 879 656 q 969 474 953 547 q 976 315 985 400 q 932 131 968 221 q 1042 78 992 108 q 1129 13 1093 49 q 1183 -67 1165 -24 q 1197 -157 1201 -110 q 1174 -238 1193 -201 q 1124 -303 1156 -275 q 1051 -346 1093 -331 q 960 -361 1008 -361 q 790 -332 876 -361 q 613 -254 704 -303 q 449 -332 533 -303 q 268 -361 364 -361 q 168 -345 213 -361 q 92 -301 124 -329 q 47 -234 61 -274 q 36 -146 32 -194 q 92 -20 43 -78 q 221 82 140 38 q 147 253 172 165 q 132 442 122 340 q 200 690 144 581 q 341 877 256 800 q 535 995 426 954 q 761 1036 643 1036 m 1061 -147 q 1020 -50 1067 -96 q 890 32 974 -4 q 803 -93 851 -39 q 697 -192 756 -147 q 818 -233 757 -218 q 933 -247 879 -247 q 1025 -217 993 -247 q 1061 -147 1057 -187 m 593 -131 q 692 -43 649 -90 q 774 65 735 4 q 694 74 733 72 q 610 75 654 76 q 499 64 556 72 q 394 38 442 56 q 488 -53 436 -11 q 593 -131 540 -96 m 286 -247 q 397 -233 338 -247 q 511 -192 456 -219 q 384 -106 442 -154 q 288 -8 326 -58 q 205 -78 235 -40 q 171 -157 175 -117 q 195 -222 167 -196 q 286 -247 224 -247 m 689 593 q 579 560 624 589 q 531 479 535 531 q 576 404 525 414 q 606 403 589 400 q 667 443 646 406 q 692 543 689 481 q 689 593 693 569 z "},"ஈ":{"ha":968,"x_min":115,"x_max":972,"o":"m 972 710 l 957 567 l 742 567 l 690 0 l 549 0 l 601 567 l 310 567 l 257 0 l 115 0 l 183 710 l 972 710 m 439 396 q 496 370 475 396 q 513 306 517 344 q 483 240 510 265 q 422 215 457 215 q 365 240 386 215 q 347 306 344 265 q 378 370 353 344 q 439 396 403 396 m 869 396 q 926 370 906 396 q 943 306 947 344 q 915 240 940 265 q 853 215 889 215 q 797 240 817 215 q 781 306 778 265 q 808 370 783 344 q 869 396 833 396 z "},"உ":{"ha":1196,"x_min":108,"x_max":1179,"o":"m 456 722 q 582 699 521 722 q 689 635 643 676 q 760 537 735 593 q 779 414 785 481 q 748 307 774 354 q 680 226 722 260 q 581 169 638 192 q 460 135 525 146 l 1179 135 l 1168 0 l 111 0 l 108 157 q 491 225 361 158 q 633 414 621 292 q 606 535 640 486 q 508 593 572 583 q 524 532 519 564 q 526 471 529 500 q 477 355 519 404 q 350 296 435 306 q 242 303 292 288 q 153 363 186 318 q 128 478 121 407 q 162 581 133 535 q 235 658 190 626 q 338 706 281 689 q 456 722 394 722 m 436 589 q 366 577 396 588 q 317 551 336 567 q 288 515 297 535 q 276 474 278 494 q 289 423 274 443 q 336 403 304 403 q 440 546 432 403 q 436 589 440 568 z "},"ஊ":{"ha":1926,"x_min":108,"x_max":1933,"o":"m 1151 722 q 1275 683 1222 722 q 1350 571 1328 644 l 1364 710 l 1933 710 l 1921 575 l 1793 575 l 1761 239 l 1618 239 l 1650 575 l 1485 575 l 1453 239 l 1318 239 l 1332 374 q 1328 459 1336 417 q 1301 533 1321 501 q 1247 583 1281 565 q 1165 594 1214 600 q 1223 519 1201 563 q 1244 426 1244 475 q 1228 349 1244 385 q 1185 285 1213 313 q 1119 241 1157 257 q 1038 225 1081 225 q 965 238 999 225 q 905 276 931 251 q 864 337 879 301 q 849 417 849 372 q 872 532 849 476 q 935 630 894 588 q 1031 697 975 672 q 1151 722 1086 722 m 1104 579 q 1028 519 1060 561 q 996 418 996 476 q 1014 363 996 382 q 1061 343 1032 343 q 1097 353 1082 343 q 1123 381 1113 364 q 1138 418 1133 397 q 1143 461 1143 439 q 1133 528 1143 500 q 1104 579 1122 556 m 456 722 q 576 701 518 722 q 681 643 635 681 q 753 554 726 606 q 781 442 781 503 q 756 322 781 374 q 688 232 731 269 q 585 171 644 194 q 460 135 526 147 l 1879 135 l 1867 0 l 111 0 l 108 157 q 324 174 226 157 q 490 224 421 190 q 597 311 558 258 q 635 436 635 364 q 601 542 635 500 q 508 593 568 583 q 528 490 528 543 q 513 410 528 447 q 469 347 497 374 q 403 303 442 319 q 318 288 364 288 q 242 299 276 288 q 181 331 207 310 q 141 383 156 353 q 126 453 126 414 q 153 565 126 515 q 226 650 181 615 q 331 703 271 685 q 456 722 390 722 m 436 589 q 315 549 354 586 q 276 465 276 513 q 291 420 276 438 q 336 403 306 403 q 392 422 371 403 q 424 468 413 440 q 437 528 435 496 q 436 589 439 561 z "},"எ":{"ha":1057,"x_min":88,"x_max":1096,"o":"m 1096 710 l 1081 567 l 949 567 l 897 0 l 756 0 l 808 567 l 604 567 q 473 547 536 567 q 360 491 410 528 q 277 402 310 454 q 239 285 244 350 q 248 185 232 222 q 294 126 264 147 q 297 196 293 160 q 314 267 300 232 q 388 381 336 333 q 518 429 440 429 q 595 414 561 429 q 651 371 629 399 q 682 305 672 343 q 688 221 692 267 q 658 128 682 171 q 597 53 635 85 q 507 5 558 22 q 396 -12 456 -12 q 276 11 333 -12 q 175 78 218 35 q 110 181 132 121 q 94 313 88 240 q 145 469 103 397 q 256 595 188 542 q 417 679 325 649 q 618 710 510 710 l 1096 710 m 482 292 q 418 263 446 292 q 379 193 390 233 q 372 111 368 149 q 387 109 379 110 q 403 108 394 108 q 447 114 424 108 q 489 133 469 119 q 523 167 508 146 q 540 218 538 188 q 529 271 543 250 q 482 292 515 292 z "},"ஏ":{"ha":1057,"x_min":88,"x_max":1096,"o":"m 1096 710 l 1081 567 l 949 567 l 897 0 l 896 0 l 888 -94 l 543 -361 l 428 -281 l 753 -25 l 760 57 l 761 57 l 808 567 l 604 567 q 473 547 536 567 q 360 491 410 528 q 277 402 310 454 q 239 285 244 350 q 248 185 232 222 q 294 126 264 147 q 297 196 293 160 q 314 267 300 232 q 388 381 336 333 q 518 429 440 429 q 595 414 561 429 q 651 371 629 399 q 682 305 672 343 q 688 221 692 267 q 658 128 682 171 q 597 53 635 85 q 507 5 558 22 q 396 -12 456 -12 q 276 11 333 -12 q 175 78 218 35 q 110 181 132 121 q 94 313 88 240 q 145 469 103 397 q 256 595 188 542 q 417 679 325 649 q 618 710 510 710 l 1096 710 m 482 292 q 418 263 446 292 q 379 193 390 233 q 372 111 368 149 q 387 109 379 110 q 403 108 394 108 q 447 114 424 108 q 489 133 469 119 q 523 167 508 146 q 540 218 538 188 q 529 271 543 250 q 482 292 515 292 z "},"ஐ":{"ha":1118,"x_min":71,"x_max":1081,"o":"m 864 722 q 949 703 910 722 q 1018 650 989 685 q 1064 568 1047 615 q 1081 463 1081 521 q 1045 285 1081 365 q 945 149 1010 206 q 791 60 881 92 q 592 29 701 29 l 346 29 q 253 -3 288 29 q 218 -93 218 -35 q 255 -178 218 -146 q 360 -211 292 -211 q 519 -67 506 -211 l 660 -67 q 658 -83 658 -75 q 658 -99 658 -92 q 690 -184 661 -157 q 767 -211 719 -211 q 851 -172 819 -211 q 883 -76 883 -133 q 878 -34 883 -54 q 865 6 874 -14 l 994 64 q 1029 -81 1029 -6 q 1013 -189 1029 -137 q 965 -278 997 -240 q 886 -339 933 -317 q 778 -361 839 -361 q 675 -331 719 -361 q 611 -231 631 -300 q 346 -361 524 -361 q 233 -341 283 -361 q 146 -285 182 -321 q 90 -201 110 -250 q 71 -94 71 -151 q 142 99 71 28 q 353 171 214 171 l 590 171 q 724 188 661 171 q 833 240 786 204 q 906 333 879 276 q 933 471 933 390 q 910 555 933 525 q 850 585 888 585 q 767 540 801 585 q 724 404 732 494 l 713 283 l 572 283 l 581 372 q 545 533 585 472 q 424 592 506 593 q 474 517 456 561 q 492 429 492 474 q 444 299 492 350 q 308 247 396 247 q 237 259 271 247 q 176 295 203 271 q 135 355 150 319 q 119 436 119 390 q 142 544 119 492 q 203 635 164 596 q 294 699 242 675 q 408 722 347 722 q 540 683 481 722 q 628 563 599 643 q 727 682 665 642 q 864 722 789 722 m 319 364 q 383 396 360 364 q 407 481 407 428 q 395 535 407 510 q 363 579 383 560 q 288 524 321 561 q 256 433 256 486 q 274 381 256 399 q 319 364 292 364 z "},"ஒ":{"ha":1439,"x_min":86,"x_max":1407,"o":"m 786 722 q 1072 682 953 722 q 1267 578 1192 642 q 1374 434 1342 514 q 1399 275 1407 354 q 1369 153 1392 207 q 1311 63 1346 100 q 1232 7 1276 26 q 1140 -12 1188 -12 q 1063 1 1099 -12 q 1003 39 1028 14 q 965 99 978 64 q 957 179 953 135 q 965 216 960 196 q 979 257 971 236 q 900 159 931 217 q 864 42 869 101 q 872 -42 860 -7 q 908 -101 883 -78 q 971 -135 933 -124 q 1056 -146 1008 -146 l 1192 -146 l 1178 -287 l 1053 -287 q 894 -256 963 -287 q 769 -431 836 -372 q 597 -497 701 -490 q 517 -493 557 -501 q 388 -419 438 -478 q 347 -271 339 -360 q 372 -182 353 -225 q 419 -107 392 -139 l 556 -146 q 508 -235 521 -190 q 500 -267 503 -251 q 500 -299 497 -283 q 528 -344 503 -331 q 585 -358 553 -358 q 688 -315 638 -358 q 779 -176 739 -271 q 727 -72 740 -125 q 721 40 714 -19 q 801 253 732 158 q 978 419 869 347 l 1124 365 q 1094 296 1106 328 q 1079 224 1083 264 q 1094 157 1076 183 q 1149 131 1113 131 q 1215 167 1185 131 q 1251 275 1244 204 q 1226 394 1257 339 q 1132 490 1194 450 q 978 554 1069 531 q 771 578 886 578 q 384 499 518 578 q 238 279 250 419 q 249 184 232 221 q 294 126 265 147 q 297 196 293 160 q 314 267 300 232 q 344 329 325 300 q 388 381 363 358 q 447 416 414 403 q 518 429 479 429 q 595 414 561 429 q 651 371 629 399 q 682 305 672 343 q 688 221 692 267 q 658 128 682 171 q 595 53 633 85 q 506 5 557 22 q 396 -12 454 -12 q 274 11 332 -12 q 174 78 217 35 q 109 180 132 121 q 93 310 86 239 q 145 473 101 397 q 274 604 189 549 q 485 691 358 660 q 786 722 613 722 m 482 292 q 418 263 446 292 q 379 193 390 233 q 372 111 368 149 q 387 109 379 110 q 403 108 394 108 q 447 114 424 108 q 489 133 469 119 q 523 167 508 146 q 540 218 538 188 q 529 271 543 250 q 482 292 515 292 z "},"ஓ":{"ha":1424,"x_min":86,"x_max":1407,"o":"m 1053 -287 q 894 -261 967 -287 q 731 -440 818 -379 q 536 -501 644 -501 q 442 -486 486 -501 q 365 -442 397 -471 q 317 -374 333 -414 q 306 -285 300 -335 q 328 -208 310 -243 q 374 -150 346 -174 q 435 -113 401 -126 q 506 -100 469 -100 q 584 -117 551 -100 q 637 -162 617 -133 q 666 -233 657 -192 q 675 -325 675 -275 q 735 -265 707 -299 q 789 -192 764 -231 q 731 -90 749 -149 q 721 40 714 -32 q 801 253 732 158 q 978 419 869 347 l 1124 365 q 1094 296 1106 328 q 1079 224 1083 264 q 1094 157 1076 183 q 1149 131 1113 131 q 1215 167 1185 131 q 1251 275 1244 204 q 1226 394 1257 339 q 1132 490 1194 450 q 978 554 1069 531 q 771 578 886 578 q 384 499 518 578 q 238 279 250 419 q 249 184 232 221 q 294 126 265 147 q 297 196 293 160 q 314 267 301 232 q 389 381 338 333 q 518 429 440 429 q 595 414 561 429 q 651 371 629 399 q 682 305 672 343 q 688 221 692 267 q 659 128 683 171 q 596 53 635 85 q 506 5 557 22 q 396 -12 454 -12 q 274 11 332 -12 q 174 78 217 35 q 109 180 132 121 q 93 310 86 239 q 145 473 101 397 q 274 604 189 549 q 485 691 358 660 q 786 722 613 722 q 1072 682 953 722 q 1267 578 1192 642 q 1375 433 1343 514 q 1399 274 1407 353 q 1369 153 1392 206 q 1310 63 1346 100 q 1231 7 1275 26 q 1140 -12 1188 -12 q 1063 1 1099 -12 q 1003 39 1028 14 q 965 99 978 64 q 957 179 953 135 q 965 216 960 196 q 979 257 971 236 q 900 159 931 217 q 864 42 869 101 q 870 -42 858 -7 q 908 -101 882 -78 q 972 -135 933 -124 q 1056 -146 1010 -146 l 1192 -146 l 1178 -287 l 1053 -287 m 482 292 q 417 263 444 292 q 379 193 390 233 q 372 111 368 149 q 392 108 381 108 q 415 108 404 108 q 455 115 433 108 q 494 136 476 122 q 525 170 513 150 q 540 218 538 190 q 528 271 543 250 q 482 292 514 292 m 515 -219 q 464 -240 485 -219 q 440 -290 443 -260 q 464 -351 438 -328 q 531 -374 490 -374 q 563 -372 550 -374 q 590 -367 575 -371 q 574 -260 593 -300 q 515 -219 556 -219 z "},"ஔ":{"ha":2833,"x_min":86,"x_max":2865,"o":"m 1053 -287 q 894 -261 967 -287 q 731 -440 818 -379 q 536 -501 644 -501 q 442 -486 486 -501 q 365 -442 397 -471 q 317 -374 333 -414 q 306 -285 300 -335 q 328 -208 310 -243 q 374 -150 346 -174 q 435 -113 401 -126 q 506 -100 469 -100 q 584 -117 551 -100 q 637 -162 617 -133 q 666 -233 657 -192 q 675 -325 675 -275 q 735 -265 707 -299 q 789 -192 764 -231 q 731 -90 749 -149 q 721 40 714 -32 q 801 253 732 158 q 978 419 869 347 l 1124 365 q 1094 296 1106 328 q 1079 224 1083 264 q 1094 157 1076 183 q 1149 131 1113 131 q 1215 167 1185 131 q 1251 275 1244 204 q 1226 394 1257 339 q 1132 490 1194 450 q 978 554 1069 531 q 771 578 886 578 q 384 499 518 578 q 238 279 250 419 q 249 184 232 221 q 294 126 265 147 q 297 196 293 160 q 314 267 301 232 q 389 381 338 333 q 518 429 440 429 q 595 414 561 429 q 651 371 629 399 q 682 305 672 343 q 688 221 692 267 q 659 128 683 171 q 596 53 635 85 q 506 5 557 22 q 396 -12 454 -12 q 274 11 332 -12 q 174 78 217 35 q 109 180 132 121 q 93 310 86 239 q 145 473 101 397 q 274 604 189 549 q 485 691 358 660 q 786 722 613 722 q 1072 682 953 722 q 1267 578 1192 642 q 1375 433 1343 514 q 1399 274 1407 353 q 1369 153 1392 206 q 1310 63 1346 100 q 1231 7 1275 26 q 1140 -12 1188 -12 q 1063 1 1099 -12 q 1003 39 1028 14 q 965 99 978 64 q 957 179 953 135 q 965 216 960 196 q 979 257 971 236 q 900 159 931 217 q 864 42 869 101 q 870 -42 858 -7 q 908 -101 882 -78 q 972 -135 933 -124 q 1056 -146 1010 -146 l 1192 -146 l 1178 -287 l 1053 -287 m 1939 722 q 2049 703 2001 722 q 2133 651 2097 683 q 2192 578 2168 619 q 2226 492 2215 536 l 2249 710 l 2865 710 l 2853 567 l 2722 567 l 2669 0 l 2526 0 l 2579 567 l 2365 567 l 2313 0 l 2182 0 l 2201 218 q 2148 483 2217 388 q 1950 578 2079 578 q 1837 555 1889 578 q 1744 492 1785 532 q 1678 399 1704 453 q 1647 285 1653 346 q 1656 185 1640 222 q 1703 126 1672 147 q 1706 196 1701 160 q 1722 267 1710 232 q 1797 381 1746 333 q 1926 429 1849 429 q 2003 414 1969 429 q 2059 371 2038 399 q 2090 305 2081 343 q 2096 221 2100 267 q 2067 128 2092 171 q 2005 53 2043 85 q 1915 5 1967 22 q 1804 -12 1864 -12 q 1684 11 1742 -12 q 1583 78 1626 35 q 1518 183 1540 122 q 1503 319 1496 244 q 1552 488 1511 414 q 1653 615 1593 563 q 1788 694 1714 667 q 1939 722 1863 722 m 482 292 q 417 263 444 292 q 379 193 390 233 q 372 111 368 149 q 392 108 381 108 q 415 108 404 108 q 455 115 433 108 q 494 136 476 122 q 525 170 513 150 q 540 218 538 190 q 528 271 543 250 q 482 292 514 292 m 1890 292 q 1826 263 1853 292 q 1788 193 1799 233 q 1781 111 1776 149 q 1801 108 1789 108 q 1824 108 1813 108 q 1863 115 1842 108 q 1903 136 1885 122 q 1933 170 1921 150 q 1949 218 1946 190 q 1937 271 1951 250 q 1890 292 1922 292 m 515 -219 q 464 -240 485 -219 q 440 -290 443 -260 q 464 -351 438 -328 q 531 -374 490 -374 q 563 -372 550 -374 q 590 -367 575 -371 q 574 -260 593 -300 q 515 -219 556 -219 z "},"க":{"ha":985,"x_min":71,"x_max":961,"o":"m 367 399 l 542 399 l 557 567 l 383 567 l 367 399 m 288 300 q 240 284 260 300 q 219 232 219 268 q 265 151 219 183 q 394 118 311 118 q 528 249 514 118 l 533 300 l 288 300 m 882 710 l 868 567 l 699 567 l 682 399 l 760 399 q 906 355 851 399 q 961 231 961 311 q 912 83 961 147 q 778 -12 863 18 l 704 104 q 783 147 751 115 q 814 226 814 179 q 793 281 814 261 q 732 300 772 300 l 674 300 l 668 249 q 581 50 654 113 q 397 -12 507 -12 q 258 10 319 -12 q 156 68 197 32 q 92 149 114 104 q 71 239 71 193 q 114 356 71 314 q 229 399 157 399 l 236 399 l 267 710 l 882 710 z "},"ங":{"ha":1228,"x_min":115,"x_max":1175,"o":"m 811 710 l 796 567 l 660 567 l 646 419 l 724 419 q 851 379 807 419 q 888 260 896 339 q 817 143 881 182 l 981 143 l 1033 710 l 1175 710 l 1107 0 l 475 0 l 489 143 l 640 143 q 715 170 690 143 q 744 233 740 197 q 732 291 749 267 q 671 315 715 315 l 497 315 l 519 567 l 310 567 l 257 0 l 115 0 l 183 710 l 811 710 z "},"ச":{"ha":861,"x_min":68,"x_max":882,"o":"m 367 399 l 540 399 l 557 567 l 382 567 l 367 399 m 288 300 q 218 240 224 300 q 260 154 213 190 q 393 118 307 118 q 488 150 456 118 q 526 249 519 182 l 532 300 l 288 300 m 882 710 l 867 567 l 697 567 l 681 399 l 824 399 l 814 300 l 674 300 l 668 249 q 579 49 653 111 q 397 -12 506 -12 q 251 12 314 -12 q 147 75 189 36 q 87 162 106 114 q 72 258 68 210 q 122 364 79 329 q 236 399 165 399 l 265 710 l 882 710 z "},"ஜ":{"ha":1125,"x_min":68,"x_max":1081,"o":"m 408 722 q 549 676 496 722 q 625 563 601 631 q 728 682 667 642 q 864 722 790 722 q 949 703 910 722 q 1018 651 989 685 q 1064 569 1047 617 q 1081 465 1081 522 q 1041 287 1081 365 q 932 155 1001 208 q 767 74 863 101 q 557 46 671 46 l 393 46 q 265 5 314 46 q 215 -103 215 -36 q 251 -187 215 -156 q 339 -219 286 -219 q 461 -185 399 -219 q 588 -108 524 -150 q 720 -31 653 -65 q 857 4 788 4 q 935 -8 903 4 q 990 -42 968 -21 q 1023 -91 1013 -62 q 1033 -151 1033 -119 q 979 -292 1033 -235 q 839 -374 925 -350 l 749 -301 q 795 -285 771 -296 q 840 -260 819 -275 q 874 -224 861 -244 q 888 -179 888 -204 q 872 -142 888 -157 q 829 -126 857 -126 q 763 -144 800 -126 q 686 -187 726 -161 q 601 -244 646 -214 q 510 -300 557 -274 q 417 -344 464 -326 q 325 -361 371 -361 q 222 -344 268 -361 q 140 -294 175 -326 q 87 -218 106 -262 q 68 -119 68 -174 q 92 3 68 -51 q 160 94 117 57 q 263 151 203 132 q 393 171 322 171 l 571 171 q 719 188 651 171 q 833 242 786 206 q 907 335 881 279 q 933 465 933 390 q 910 555 933 525 q 850 585 888 585 q 767 539 801 585 q 724 404 732 493 l 713 299 l 572 299 l 579 361 q 577 447 583 404 q 552 521 571 489 q 502 572 533 553 q 424 592 471 592 q 474 516 456 561 q 492 425 492 471 q 478 355 492 388 q 441 299 465 322 q 383 261 417 275 q 308 247 349 247 q 237 259 271 247 q 176 294 203 271 q 135 351 150 317 q 119 431 119 385 q 142 543 119 490 q 205 635 165 596 q 297 699 244 675 q 408 722 350 722 m 363 579 q 287 524 318 563 q 256 436 256 485 q 272 384 256 404 q 319 364 288 364 q 383 397 360 364 q 407 478 407 431 q 396 531 407 504 q 363 579 385 557 z "},"ஞ":{"ha":1624,"x_min":94,"x_max":1588,"o":"m 1392 710 l 1378 567 l 1246 567 l 1222 315 q 1397 429 1279 429 q 1480 407 1443 429 q 1542 346 1517 385 q 1577 255 1567 307 q 1582 143 1588 203 q 1522 -56 1571 36 q 1381 -217 1472 -149 q 1153 -323 1289 -285 q 838 -361 1018 -361 q 523 -319 664 -361 q 285 -194 382 -276 q 141 10 188 -111 q 110 288 94 131 q 166 520 121 417 q 274 718 211 624 l 403 674 q 302 482 338 574 q 258 288 267 390 q 285 66 246 160 q 403 -89 324 -28 q 598 -180 483 -150 q 851 -210 713 -210 q 1089 -184 985 -210 q 1267 -112 1193 -158 q 1383 -1 1342 -67 q 1433 143 1425 64 q 1415 254 1440 217 q 1347 292 1390 292 q 1282 269 1310 292 q 1235 208 1254 247 q 1205 116 1215 169 q 1192 0 1194 63 l 1050 0 l 1051 4 l 1104 567 l 901 567 q 769 547 833 567 q 656 491 706 528 q 573 402 606 454 q 535 285 540 350 q 545 185 529 222 q 592 126 561 147 q 594 196 590 160 q 610 267 597 232 q 685 381 633 333 q 815 429 738 429 q 892 414 858 429 q 947 371 925 399 q 978 305 969 343 q 983 221 988 267 q 956 128 979 171 q 893 53 932 85 q 803 5 854 22 q 692 -12 751 -12 q 572 11 629 -12 q 472 78 515 35 q 406 181 429 121 q 390 313 383 240 q 441 469 399 397 q 553 595 483 542 q 715 679 622 649 q 915 710 807 710 l 1392 710 m 779 292 q 715 263 743 292 q 675 193 686 233 q 668 151 669 172 q 668 111 667 131 q 683 109 675 110 q 699 108 692 108 q 742 114 719 108 q 785 133 765 119 q 819 167 806 146 q 836 218 833 188 q 825 271 839 250 q 779 292 811 292 z "},"ட":{"ha":871,"x_min":115,"x_max":869,"o":"m 325 710 l 271 143 l 869 143 l 857 0 l 115 0 l 183 710 l 325 710 z "},"ண":{"ha":2113,"x_min":88,"x_max":2150,"o":"m 683 722 q 860 691 776 722 q 1010 596 943 660 q 1147 690 1075 658 q 1303 722 1219 722 q 1441 691 1379 722 q 1553 599 1503 660 q 1703 683 1619 657 q 1874 710 1788 710 l 2150 710 l 2138 567 l 2004 567 l 1951 0 l 1811 0 l 1863 567 q 1747 554 1804 567 q 1639 518 1690 542 q 1713 378 1692 444 q 1726 236 1733 311 q 1699 130 1721 176 q 1646 52 1678 83 q 1572 4 1614 21 q 1483 -12 1531 -12 q 1332 51 1388 -12 q 1288 236 1276 115 q 1335 393 1294 322 q 1446 525 1375 464 q 1370 564 1413 550 q 1286 578 1328 578 q 1190 563 1238 578 q 1103 524 1142 549 q 1203 236 1217 385 q 1124 51 1192 115 q 961 -12 1056 -12 q 810 51 865 -12 q 765 236 754 115 q 809 381 772 311 q 910 514 846 451 q 799 560 860 543 q 669 578 739 578 q 498 556 575 578 q 365 494 421 533 q 277 401 310 456 q 239 285 244 347 q 249 185 232 222 q 294 126 265 147 q 297 196 293 160 q 314 267 301 232 q 389 381 338 333 q 518 429 440 429 q 595 414 561 429 q 651 371 629 399 q 682 305 672 343 q 688 221 692 267 q 659 128 683 171 q 596 53 635 85 q 506 5 557 22 q 396 -12 454 -12 q 274 11 332 -12 q 174 78 217 35 q 110 181 132 121 q 94 313 88 240 q 140 464 100 390 q 254 595 181 538 q 435 688 328 653 q 683 722 543 722 m 482 292 q 417 263 444 292 q 379 193 390 233 q 372 111 368 149 q 393 108 382 108 q 415 108 404 108 q 456 115 435 108 q 494 136 476 122 q 525 171 513 150 q 540 218 538 192 q 528 271 543 250 q 482 292 514 292 m 999 447 q 934 347 958 401 q 904 236 910 293 q 920 153 900 186 q 974 119 940 119 q 1033 153 1007 119 q 1065 236 1058 186 q 999 447 1076 351 m 1533 451 q 1456 342 1482 396 q 1426 236 1431 289 q 1442 151 1421 183 q 1496 119 1464 119 q 1555 151 1529 119 q 1588 236 1581 183 q 1578 344 1592 289 q 1533 451 1565 399 z "},"த":{"ha":997,"x_min":14,"x_max":978,"o":"m 882 710 l 868 567 l 699 567 l 682 399 q 902 340 826 399 q 965 144 978 281 q 913 -27 957 49 q 796 -154 868 -103 q 626 -233 724 -206 q 415 -260 529 -260 l 213 -260 q 156 -306 160 -260 q 167 -353 154 -331 q 199 -399 179 -375 l 100 -465 q 39 -381 64 -431 q 19 -272 14 -331 q 83 -152 28 -189 q 233 -115 138 -115 l 454 -115 q 607 -96 542 -115 q 717 -42 672 -76 q 788 40 763 -7 q 818 143 813 88 q 814 219 822 189 q 788 267 806 250 q 744 292 769 285 q 689 300 719 300 l 674 300 l 668 249 q 581 50 654 113 q 397 -12 507 -12 q 252 12 315 -12 q 147 75 189 36 q 87 162 106 114 q 72 258 68 210 q 122 362 79 325 q 231 399 164 399 l 236 399 l 267 710 l 882 710 m 288 300 q 240 285 258 300 q 219 240 222 271 q 261 154 215 190 q 394 118 307 118 q 528 249 515 118 l 533 300 l 288 300 m 367 399 l 542 399 l 557 567 l 383 567 l 367 399 z "},"ந":{"ha":1040,"x_min":63,"x_max":1008,"o":"m 811 710 l 796 567 l 660 567 l 636 313 q 709 400 664 371 q 813 429 754 429 q 899 407 861 429 q 961 346 936 385 q 997 255 986 307 q 1003 143 1008 203 q 955 -18 994 56 q 849 -145 915 -92 q 694 -229 783 -199 q 497 -260 606 -260 l 261 -260 q 203 -308 210 -260 q 210 -353 200 -332 q 240 -399 221 -375 l 140 -465 q 83 -373 103 -421 q 68 -272 63 -325 q 82 -213 71 -242 q 116 -162 93 -185 q 173 -128 139 -140 q 256 -115 207 -115 l 514 -115 q 655 -95 593 -115 q 759 -40 717 -75 q 826 43 801 -4 q 856 143 850 90 q 834 254 863 217 q 765 292 806 292 q 665 233 707 292 q 613 72 624 174 l 607 0 l 467 0 l 519 567 l 310 567 l 257 0 l 115 0 l 183 710 l 811 710 z "},"ன":{"ha":1583,"x_min":88,"x_max":1622,"o":"m 683 722 q 870 688 788 722 q 1022 592 953 654 q 1173 679 1090 649 q 1346 710 1256 710 l 1622 710 l 1608 567 l 1476 567 l 1424 0 l 1283 0 l 1335 567 q 1114 517 1214 567 q 1184 381 1163 453 q 1199 236 1206 310 q 1172 130 1193 176 q 1119 52 1151 83 q 1045 4 1086 21 q 957 -12 1004 -12 q 805 51 861 -12 q 760 236 749 115 q 805 388 767 318 q 908 515 843 458 q 802 560 860 543 q 669 578 744 578 q 499 556 576 578 q 367 494 422 533 q 278 401 311 456 q 239 285 244 347 q 248 185 232 222 q 294 126 264 147 q 297 196 293 160 q 314 267 301 232 q 389 381 338 333 q 518 429 440 429 q 595 414 561 429 q 651 371 629 399 q 682 305 672 343 q 688 221 692 267 q 659 128 683 171 q 597 53 635 85 q 507 5 558 22 q 396 -12 456 -12 q 276 11 333 -12 q 175 78 218 35 q 110 181 132 121 q 94 313 88 240 q 140 464 100 390 q 254 595 181 538 q 435 688 328 653 q 683 722 543 722 m 1003 449 q 928 342 953 394 q 899 236 903 290 q 914 153 893 186 q 968 119 935 119 q 1028 153 1001 119 q 1060 236 1054 186 q 1003 449 1069 343 m 482 292 q 417 263 444 292 q 379 193 390 233 q 372 111 368 149 q 392 108 381 108 q 415 108 404 108 q 456 115 435 108 q 494 136 476 122 q 525 171 513 150 q 540 218 538 192 q 528 271 543 250 q 482 292 514 292 z "},"ப":{"ha":967,"x_min":115,"x_max":914,"o":"m 325 710 l 271 143 l 718 143 l 772 710 l 914 710 l 846 0 l 115 0 l 183 710 l 325 710 z "},"ம":{"ha":1053,"x_min":115,"x_max":1026,"o":"m 325 710 l 271 143 l 492 143 l 525 506 q 591 668 536 614 q 735 722 646 722 q 849 690 794 722 q 944 602 904 657 q 1006 475 985 547 q 1019 324 1026 403 q 919 87 1004 174 q 692 0 833 0 l 115 0 l 183 710 l 325 710 m 729 578 q 688 560 704 578 q 668 506 671 542 l 632 143 l 706 143 q 818 188 774 143 q 871 324 863 233 q 865 419 875 374 q 833 501 854 465 q 785 557 813 536 q 729 578 757 578 z "},"ய":{"ha":1233,"x_min":124,"x_max":1179,"o":"m 321 710 l 281 269 q 295 165 274 199 q 372 131 317 131 q 473 181 429 131 q 528 342 517 231 l 547 342 q 534 248 543 297 q 508 153 525 199 l 524 311 l 561 710 l 703 710 l 649 143 l 985 143 l 1039 710 l 1179 710 l 1113 0 l 494 0 l 508 153 q 436 35 483 83 q 308 -12 389 -12 q 172 48 221 -12 q 135 229 124 108 l 181 710 l 321 710 z "},"ர":{"ha":768,"x_min":115,"x_max":806,"o":"m 806 710 l 793 567 l 660 567 l 607 0 l 597 -94 l 254 -361 l 139 -281 l 464 -25 l 469 31 l 519 567 l 310 567 l 257 0 l 115 0 l 183 710 l 806 710 z "},"ற":{"ha":1065,"x_min":68,"x_max":1035,"o":"m 401 722 q 500 684 464 722 q 546 590 536 646 q 647 695 592 668 q 769 722 703 722 q 890 688 838 722 q 975 594 942 653 q 1022 454 1008 535 q 1026 282 1035 374 q 971 50 1014 151 q 860 -120 928 -51 q 703 -224 793 -189 q 504 -260 613 -260 l 267 -260 q 210 -306 211 -260 q 219 -353 207 -331 q 254 -399 232 -375 l 153 -465 q 92 -381 117 -431 q 74 -272 68 -331 q 88 -213 76 -242 q 122 -162 100 -185 q 178 -128 144 -140 q 261 -115 213 -115 l 519 -115 q 674 -83 610 -115 q 781 3 738 -51 q 847 129 824 57 q 876 282 869 201 q 876 401 882 347 q 855 495 871 456 q 813 556 839 535 q 754 578 788 578 q 676 537 706 578 q 640 425 647 496 l 600 0 l 461 0 l 501 425 q 488 538 507 496 q 414 578 468 579 q 331 537 358 578 q 296 425 303 496 l 256 0 l 114 0 l 154 425 q 236 653 169 585 q 401 722 303 722 z "},"ல":{"ha":1315,"x_min":88,"x_max":1297,"o":"m 611 722 q 774 695 708 722 q 877 617 839 668 q 928 492 915 565 q 933 325 942 418 l 924 215 q 932 150 919 169 q 972 131 944 131 q 1025 151 997 131 q 1076 205 1053 171 q 1117 284 1100 239 q 1139 379 1135 329 q 1119 544 1147 467 q 1033 685 1092 621 l 1211 722 q 1276 558 1256 646 q 1288 379 1297 471 q 1251 231 1281 301 q 1176 106 1221 160 q 1074 19 1131 51 q 958 -12 1018 -12 q 817 49 861 -12 q 783 215 774 111 l 793 325 q 755 522 804 464 q 597 579 706 579 q 468 558 531 579 q 356 499 406 538 q 276 407 307 461 q 239 285 244 353 q 248 185 232 222 q 294 126 264 147 q 293 174 292 150 q 299 222 294 197 q 324 301 307 264 q 369 367 342 339 q 433 413 396 396 q 518 429 471 429 q 595 414 561 429 q 651 371 629 399 q 682 305 672 343 q 688 221 692 267 q 658 128 682 171 q 597 53 635 85 q 507 5 558 22 q 396 -12 456 -12 q 276 11 333 -12 q 176 78 218 35 q 110 181 133 121 q 94 313 88 240 q 146 474 103 399 q 258 603 189 549 q 417 690 326 658 q 611 722 507 722 m 482 292 q 418 263 446 292 q 379 193 390 233 q 372 111 368 149 q 387 109 379 110 q 403 108 394 108 q 447 114 424 108 q 489 133 469 119 q 523 167 508 146 q 540 218 538 188 q 529 271 543 250 q 482 292 515 292 z "},"ள":{"ha":1425,"x_min":88,"x_max":1457,"o":"m 531 722 q 641 703 593 722 q 724 651 689 683 q 783 578 760 619 q 818 492 807 536 l 840 710 l 1457 710 l 1444 567 l 1314 567 l 1261 0 l 1118 0 l 1171 567 l 957 567 l 904 0 l 774 0 l 793 218 q 740 483 808 388 q 542 578 671 578 q 428 555 481 578 q 336 492 376 532 q 270 399 296 453 q 239 285 244 346 q 248 185 232 222 q 294 126 264 147 q 297 196 293 160 q 314 267 301 232 q 389 381 338 333 q 518 429 440 429 q 595 414 561 429 q 651 371 629 399 q 682 305 672 343 q 688 221 692 267 q 659 128 683 171 q 597 53 635 85 q 507 5 558 22 q 396 -12 456 -12 q 276 11 333 -12 q 175 78 218 35 q 110 183 132 122 q 94 319 88 244 q 144 488 103 414 q 245 615 185 563 q 380 694 306 667 q 531 722 454 722 m 482 292 q 417 263 444 292 q 379 193 390 233 q 372 111 368 149 q 392 108 381 108 q 415 108 404 108 q 455 115 433 108 q 494 136 476 122 q 525 170 513 150 q 540 218 538 190 q 528 271 543 250 q 482 292 514 292 z "},"ழ":{"ha":1053,"x_min":78,"x_max":1026,"o":"m 325 710 l 271 143 l 492 143 l 525 506 q 591 668 536 614 q 735 722 646 722 q 849 690 794 722 q 944 602 904 657 q 1006 475 985 547 q 1019 324 1026 403 q 919 87 1004 174 q 692 0 833 0 l 617 0 q 631 -85 610 -57 q 717 -114 651 -114 l 894 -114 l 882 -257 l 701 -257 q 632 -249 663 -257 q 492 -438 568 -375 q 306 -501 415 -501 q 211 -484 254 -501 q 138 -436 168 -467 q 93 -363 108 -406 q 82 -271 78 -321 q 107 -180 88 -222 q 153 -107 126 -137 l 290 -146 q 249 -208 265 -176 q 229 -274 233 -239 q 253 -338 226 -318 q 318 -358 279 -358 q 422 -311 369 -358 q 518 -172 475 -264 q 485 -93 494 -137 q 481 0 475 -49 l 115 0 l 183 710 l 325 710 m 729 578 q 688 560 704 578 q 668 506 671 542 l 632 143 l 706 143 q 818 188 774 143 q 871 324 863 233 q 865 419 875 374 q 833 501 854 465 q 785 557 813 536 q 729 578 757 578 z "},"வ":{"ha":1413,"x_min":88,"x_max":1361,"o":"m 581 722 q 757 689 681 722 q 882 599 833 656 q 953 469 931 543 q 967 314 975 394 q 952 225 963 267 q 926 143 942 183 l 1164 143 l 1218 710 l 1361 710 l 1292 0 l 853 0 l 751 64 q 794 175 778 117 q 817 288 811 233 q 809 400 822 347 q 763 492 796 453 q 680 555 731 532 q 563 578 629 578 q 444 556 500 578 q 344 497 388 535 q 272 404 300 458 q 239 285 244 350 q 249 185 232 222 q 294 126 265 147 q 297 196 293 160 q 314 267 300 232 q 388 381 336 333 q 518 429 440 429 q 595 414 561 429 q 651 371 629 399 q 682 305 672 343 q 688 221 692 267 q 658 128 682 171 q 597 53 635 85 q 507 5 558 22 q 396 -12 456 -12 q 276 11 333 -12 q 176 77 218 35 q 110 179 133 119 q 94 313 88 239 q 144 480 103 404 q 250 609 185 556 q 400 692 315 663 q 581 722 485 722 m 482 292 q 418 263 446 292 q 379 193 390 233 q 372 111 368 149 q 387 109 379 110 q 403 108 394 108 q 447 114 424 108 q 489 133 469 119 q 523 167 508 146 q 540 218 538 188 q 529 271 543 250 q 482 292 515 292 z "},"ஶ":{"ha":1410,"x_min":126,"x_max":1368,"o":"m 321 710 l 283 294 q 297 169 275 208 q 372 131 319 131 q 457 169 426 131 q 496 294 488 208 l 535 710 l 1368 710 l 1328 294 q 1294 158 1319 215 q 1231 63 1268 100 q 1147 6 1193 25 q 1051 -12 1101 -12 q 956 6 1000 -12 q 883 63 913 25 q 839 158 853 100 q 832 294 825 215 l 857 567 l 661 567 l 636 294 q 604 158 629 215 q 542 63 579 100 q 457 6 504 25 q 360 -12 410 -12 q 188 63 250 -12 q 142 294 126 138 l 181 710 l 321 710 m 975 294 q 988 169 965 208 q 1064 131 1011 131 q 1148 169 1118 131 q 1186 294 1178 208 l 1211 567 l 1000 567 l 975 294 z "},"ஷ":{"ha":1814,"x_min":88,"x_max":1754,"o":"m 578 722 q 756 689 679 722 q 881 599 832 656 q 953 469 931 543 q 967 314 975 394 q 952 225 963 267 q 926 143 942 183 l 1213 143 l 1253 268 q 1165 291 1206 274 q 1097 338 1125 308 q 1054 406 1068 367 q 1044 496 1040 446 q 1072 588 1049 546 q 1129 659 1094 629 q 1208 706 1164 689 q 1301 722 1253 722 q 1373 706 1340 722 q 1427 663 1406 690 q 1460 597 1449 635 q 1467 517 1471 560 q 1463 486 1464 501 q 1454 456 1461 471 l 1435 388 q 1661 569 1543 440 l 1754 519 l 1706 0 l 1317 0 l 1219 -315 l 1074 -315 l 1169 0 l 853 0 l 751 64 q 794 175 778 117 q 817 288 811 233 q 809 400 822 347 q 763 492 796 453 q 680 555 731 532 q 563 578 629 578 q 444 556 500 578 q 344 497 388 535 q 272 404 300 458 q 239 285 244 350 q 248 185 232 222 q 294 126 264 147 q 297 196 293 160 q 314 267 300 232 q 344 329 325 300 q 388 381 363 358 q 447 416 414 403 q 518 429 479 429 q 595 414 561 429 q 651 371 629 399 q 682 305 672 343 q 688 221 692 267 q 659 128 683 171 q 597 53 635 85 q 507 5 558 22 q 396 -12 456 -12 q 276 11 333 -12 q 175 78 218 35 q 110 181 132 121 q 94 313 88 240 q 144 480 103 404 q 249 609 185 556 q 399 692 314 663 q 578 722 483 722 m 1360 143 l 1578 143 l 1601 393 q 1401 278 1503 303 l 1360 143 m 1289 578 q 1250 569 1268 578 q 1218 546 1232 561 q 1197 510 1204 531 q 1190 464 1189 489 q 1218 397 1192 424 q 1296 364 1244 369 l 1336 493 q 1340 506 1339 500 q 1342 519 1340 513 q 1330 562 1343 546 q 1289 578 1317 578 m 482 292 q 413 258 440 292 q 375 179 385 224 q 372 107 368 138 q 381 111 376 107 q 407 109 393 108 q 436 113 421 110 q 503 147 472 119 q 540 218 535 174 q 528 271 543 250 q 482 292 514 292 z "},"ஸ":{"ha":1685,"x_min":93,"x_max":1661,"o":"m 528 722 q 640 706 592 722 q 725 660 689 689 q 784 593 761 632 q 818 511 807 554 q 926 671 854 619 q 1083 722 997 722 q 1246 660 1190 722 q 1304 485 1301 599 q 1304 456 1304 471 q 1301 425 1304 440 l 1281 215 q 1290 157 1278 183 q 1343 131 1303 131 q 1406 157 1375 131 q 1460 226 1436 183 q 1498 320 1483 268 q 1513 422 1513 372 q 1483 563 1513 497 q 1406 685 1454 629 l 1581 722 q 1640 581 1619 656 q 1661 428 1661 507 q 1638 279 1661 357 q 1570 137 1614 201 q 1465 30 1526 72 q 1329 -12 1404 -12 q 1240 5 1278 -12 q 1179 52 1203 22 q 1146 124 1156 82 q 1140 215 1136 165 l 1160 425 q 1160 475 1163 449 q 1149 524 1158 501 q 1120 563 1139 547 q 1069 578 1101 578 q 991 541 1022 578 q 953 425 960 504 l 913 0 l 771 0 l 790 215 q 792 244 792 231 q 793 272 793 258 q 724 499 792 421 q 540 578 656 578 q 421 553 476 578 q 324 484 365 528 q 260 382 283 440 q 236 257 236 324 q 251 176 236 207 q 293 126 267 146 q 294 179 292 151 q 303 235 296 207 q 329 307 311 272 q 374 369 347 342 q 438 413 401 396 q 517 429 474 429 q 643 378 599 429 q 688 246 688 328 q 664 141 688 189 q 599 59 640 93 q 506 6 558 25 q 394 -12 453 -12 q 282 8 336 -12 q 185 67 228 29 q 118 160 143 106 q 93 281 93 214 q 126 449 93 368 q 217 590 158 529 q 355 686 275 650 q 528 722 435 722 m 482 292 q 440 281 458 292 q 407 251 421 269 q 384 212 393 233 q 372 169 375 190 q 372 111 368 140 q 386 109 379 110 q 401 108 393 108 q 451 116 426 108 q 496 139 476 124 q 528 177 515 154 q 540 231 540 200 q 525 275 540 258 q 482 292 510 292 z "},"ஹ":{"ha":2104,"x_min":33,"x_max":2074,"o":"m 1442 722 q 1540 684 1504 722 q 1586 590 1575 646 q 1687 695 1631 668 q 1808 722 1743 722 q 1930 688 1878 722 q 2015 594 1982 653 q 2061 454 2049 535 q 2065 282 2074 374 q 2011 50 2053 151 q 1901 -120 1969 -51 q 1743 -224 1833 -189 q 1544 -260 1653 -260 l 232 -260 q 192 -271 207 -260 q 175 -306 176 -282 q 185 -353 174 -331 q 218 -399 197 -375 l 118 -465 q 58 -381 82 -431 q 40 -272 33 -331 q 54 -213 43 -242 q 88 -162 65 -185 q 144 -128 110 -140 q 225 -115 178 -115 l 1485 -115 q 1547 -114 1517 -115 q 1606 -110 1576 -112 q 1740 -69 1685 -103 q 1833 18 1796 -35 q 1891 139 1871 71 q 1918 282 1911 207 q 1917 401 1924 347 q 1894 495 1911 456 q 1852 556 1878 535 q 1793 578 1826 578 q 1717 537 1747 578 q 1681 425 1688 496 l 1640 0 l 1500 0 l 1540 425 q 1527 537 1547 496 q 1453 578 1507 578 q 1369 537 1397 578 q 1336 425 1342 496 l 1296 0 l 856 0 l 753 64 q 797 175 781 117 q 819 288 814 233 q 811 400 825 347 q 765 492 797 453 q 683 555 733 532 q 565 578 632 578 q 448 556 504 578 q 348 497 392 535 q 275 404 304 458 q 240 285 246 350 q 251 185 233 222 q 297 126 268 147 q 299 196 296 160 q 315 267 303 232 q 381 366 338 324 q 488 418 424 408 q 590 410 544 429 q 671 342 644 392 q 690 221 697 292 q 662 128 686 171 q 599 53 638 85 q 510 5 561 22 q 399 -12 458 -12 q 278 11 336 -12 q 177 78 219 35 q 112 181 135 121 q 96 313 89 240 q 146 480 104 404 q 253 609 188 556 q 403 692 318 663 q 583 722 488 722 q 759 689 683 722 q 884 599 835 656 q 956 469 933 543 q 971 314 978 394 q 954 225 965 267 q 928 143 943 183 l 1167 143 l 1193 425 q 1223 561 1201 504 q 1276 653 1244 618 q 1351 706 1308 689 q 1442 722 1393 722 m 485 292 q 420 263 447 292 q 382 193 393 233 q 375 111 371 149 q 390 109 382 110 q 404 108 397 108 q 449 115 425 108 q 492 134 472 121 q 526 168 513 147 q 542 218 539 189 q 531 271 546 250 q 485 292 517 292 z "},"ா":{"ha":768,"x_min":115,"x_max":806,"o":"m 806 710 l 793 567 l 660 567 l 607 0 l 467 0 l 519 567 l 310 567 l 257 0 l 115 0 l 183 710 l 806 710 z "},"ி":{"ha":346,"x_min":-444,"x_max":271,"o":"m -94 1099 q 79 1063 7 1099 q 195 959 151 1026 q 255 795 239 892 q 260 578 271 699 l 204 0 l 64 0 l 118 578 q 118 750 128 679 q 80 865 108 821 q 7 929 51 910 q -96 949 -37 949 q -174 936 -137 949 q -240 901 -211 924 q -285 847 -268 878 q -307 776 -303 815 q -306 723 -310 749 q -286 675 -301 697 l -311 675 q -368 695 -343 679 q -410 735 -393 711 q -436 791 -428 760 q -440 856 -444 822 q -408 953 -436 908 q -335 1030 -381 997 q -227 1081 -289 1063 q -94 1099 -165 1099 z "},"ீ":{"ha":607,"x_min":100,"x_max":692,"o":"m 425 1188 q 541 1169 490 1188 q 625 1119 592 1150 q 675 1047 658 1088 q 688 963 692 1006 q 626 837 681 886 q 479 788 571 788 q 406 800 436 788 q 356 833 375 813 q 331 881 338 854 q 326 938 324 908 q 347 1006 331 972 q 392 1067 364 1039 q 284 1006 329 1053 q 232 886 239 960 q 344 708 221 768 l 306 689 q 216 713 256 693 q 150 765 176 733 q 112 836 124 796 q 104 922 100 876 q 137 1028 110 979 q 208 1112 164 1076 q 307 1167 251 1147 q 425 1188 363 1188 m 456 1074 q 428 1024 440 1050 q 413 974 415 997 q 426 915 410 938 q 475 892 442 892 q 528 913 506 892 q 553 967 550 935 q 526 1038 557 1011 q 456 1074 494 1065 z "},"ு":{"ha":551,"x_min":-129,"x_max":608,"o":"m 374 251 q 290 269 326 251 q 228 317 253 286 q 193 391 204 349 q 188 483 182 433 l 194 567 l -129 567 l -117 710 l 385 710 q 479 696 436 710 q 551 654 522 682 q 594 583 581 626 q 604 481 608 539 q 580 388 599 431 q 531 315 561 346 q 460 268 500 285 q 374 251 421 251 m 324 567 l 315 467 q 326 397 310 419 q 374 374 342 374 q 431 401 407 374 q 461 476 456 428 q 372 567 467 567 l 324 567 z "},"ூ":{"ha":926,"x_min":-197,"x_max":931,"o":"m 590 939 q 733 908 668 939 q 844 818 799 876 q 910 678 889 760 q 921 497 931 597 q 876 306 911 394 q 781 151 842 217 q 636 49 721 86 q 442 11 551 11 q 192 90 296 11 q 39 317 88 169 l 143 392 q 193 281 164 326 q 260 207 222 235 q 343 167 297 179 q 443 154 389 154 q 576 179 517 154 q 678 249 636 204 q 747 358 721 294 q 779 497 772 421 q 774 622 786 567 q 733 716 761 678 q 665 775 706 754 q 578 796 625 796 q 482 773 526 796 q 404 710 438 750 l 461 710 q 624 656 564 710 q 674 496 683 601 q 651 406 669 447 q 603 335 633 365 q 533 288 574 306 q 444 271 493 271 q 359 288 396 271 q 298 337 322 306 q 263 411 274 368 q 258 504 253 454 l 263 567 l -197 567 l -183 710 l 283 710 q 332 806 301 764 q 403 878 363 849 q 490 924 443 908 q 590 939 538 939 m 386 486 q 397 417 382 439 q 444 394 413 394 q 501 422 478 394 q 529 494 525 449 q 513 556 533 538 q 449 575 493 575 l 393 575 l 386 486 z "},"ெ":{"ha":1047,"x_min":97,"x_max":1006,"o":"m 732 1099 q 860 1073 807 1099 q 947 1001 914 1047 q 993 889 981 954 q 999 743 1006 824 l 928 0 l 788 0 l 858 744 q 831 901 869 853 q 719 949 792 949 q 574 905 651 949 q 428 785 496 861 q 310 608 360 710 q 250 389 261 506 q 259 224 242 289 q 313 128 276 160 q 316 196 313 160 q 333 267 319 232 q 407 381 356 333 q 538 429 458 429 q 615 414 581 429 q 670 371 649 399 q 701 305 692 343 q 706 221 710 267 q 678 128 701 171 q 615 53 654 85 q 525 5 576 22 q 414 -12 474 -12 q 289 17 349 -12 q 185 104 229 47 q 119 244 142 161 q 107 433 97 326 q 175 692 119 571 q 315 903 231 813 q 508 1047 400 994 q 732 1099 615 1099 m 501 292 q 437 263 464 292 q 399 193 410 233 q 390 111 388 151 q 411 108 401 108 q 432 108 421 108 q 513 136 472 108 q 560 218 553 164 q 548 271 563 250 q 501 292 533 292 z "},"ே":{"ha":824,"x_min":85,"x_max":860,"o":"m 583 1099 q 703 1078 651 1099 q 791 1026 756 1058 q 843 950 826 993 q 856 861 860 907 q 790 729 846 779 q 640 679 735 679 q 564 692 596 679 q 513 728 532 706 q 485 778 493 750 q 479 838 476 807 q 503 916 482 878 q 554 983 524 954 q 451 935 501 972 q 358 838 400 897 q 288 703 317 779 q 251 542 260 628 q 251 392 243 457 q 277 280 258 328 q 324 198 296 232 q 386 142 351 164 q 411 285 385 217 q 492 396 436 353 q 625 439 547 439 q 700 422 667 439 q 756 375 733 404 q 788 306 778 346 q 794 221 799 267 q 766 128 790 171 q 703 53 742 85 q 613 5 664 22 q 501 -12 561 -12 q 344 24 422 -12 q 208 130 267 60 q 117 303 149 200 q 97 542 85 407 q 152 765 108 663 q 261 941 196 867 q 410 1057 326 1015 q 583 1099 493 1099 m 471 200 q 458 117 461 158 q 474 113 465 114 q 492 111 482 113 q 544 114 514 107 q 614 149 586 121 q 646 221 642 176 q 633 281 650 258 q 585 303 617 303 q 513 272 543 303 q 471 200 483 240 m 719 865 q 713 910 721 890 q 689 945 704 931 q 653 969 674 960 q 611 983 633 979 q 581 930 593 960 q 567 874 569 900 q 580 808 563 833 q 633 783 597 783 q 692 806 669 783 q 719 865 715 828 z "},"ை":{"ha":1504,"x_min":88,"x_max":1469,"o":"m 621 722 q 783 697 704 722 q 929 624 863 671 q 1044 695 982 668 q 1174 722 1106 722 q 1299 696 1242 722 q 1394 620 1356 669 q 1451 501 1433 571 q 1461 343 1469 431 q 1409 157 1453 249 q 1293 -10 1365 65 l 1179 43 q 1281 195 1249 124 q 1321 347 1314 267 q 1318 436 1325 393 q 1292 512 1311 479 q 1242 565 1274 544 q 1168 585 1211 585 q 1096 572 1132 585 q 1026 535 1060 558 q 1106 397 1079 472 q 1125 235 1132 321 q 1099 133 1119 179 q 1049 56 1079 88 q 980 6 1018 24 q 900 -12 942 -12 q 824 6 858 -12 q 765 56 789 24 q 728 133 740 88 q 722 235 717 179 q 758 382 729 308 q 833 519 788 456 q 726 563 783 547 q 608 578 668 578 q 465 556 532 578 q 347 494 397 533 q 265 401 296 456 q 228 285 233 347 q 237 185 221 222 q 282 126 253 147 q 278 153 279 140 q 278 181 278 167 q 303 280 283 235 q 351 358 322 325 q 416 410 379 392 q 494 429 453 429 q 562 414 532 429 q 613 371 592 399 q 642 305 633 343 q 647 221 651 267 q 622 128 643 171 q 567 53 601 85 q 487 5 533 22 q 385 -12 440 -12 q 265 11 321 -12 q 169 77 210 35 q 108 179 128 119 q 94 313 88 239 q 139 464 100 390 q 246 595 178 538 q 408 688 314 653 q 621 722 503 722 m 1001 235 q 988 349 1007 297 q 931 444 968 401 q 873 347 896 400 q 844 235 850 293 q 859 153 840 183 q 911 124 878 124 q 970 153 944 124 q 1001 235 996 183 m 471 292 q 401 258 429 292 q 364 179 374 224 q 359 142 360 160 q 361 107 358 124 q 368 111 364 107 q 414 110 386 107 q 488 142 454 114 q 529 218 522 169 q 517 271 532 250 q 471 292 503 292 z "},"ௌ":{"ha":3113,"x_min":97,"x_max":3103,"o":"m 1224 588 q 1285 626 1251 611 q 1356 646 1319 640 q 1356 573 1356 610 q 1357 500 1357 536 q 1293 472 1321 496 l 1224 588 m 1110 401 q 1135 474 1118 439 q 1175 538 1153 510 l 1268 447 q 1240 388 1249 419 l 1110 401 m 1419 644 q 1536 588 1488 633 l 1446 469 q 1390 499 1424 494 l 1419 644 m 1576 535 q 1605 471 1596 506 q 1615 399 1614 436 l 1482 382 q 1477 415 1481 401 q 1467 444 1474 429 l 1576 535 m 1492 140 q 1431 103 1464 118 q 1365 83 1397 88 l 1360 228 q 1392 237 1378 231 q 1422 254 1407 243 l 1492 140 m 1607 328 q 1583 253 1600 289 q 1543 190 1567 218 l 1447 279 q 1466 311 1458 293 q 1478 344 1474 329 l 1607 328 m 1140 192 q 1103 329 1106 251 l 1235 347 q 1240 314 1236 328 q 1250 283 1243 300 l 1140 192 m 1299 83 q 1234 104 1264 89 q 1181 142 1204 119 l 1275 254 q 1328 229 1293 233 l 1299 83 m 732 1099 q 860 1073 807 1099 q 947 1001 914 1047 q 993 889 981 954 q 999 743 1006 824 l 928 0 l 788 0 l 858 744 q 831 901 869 853 q 719 949 792 949 q 574 905 651 949 q 428 785 496 861 q 310 608 360 710 q 250 389 261 506 q 259 224 242 289 q 313 128 276 160 q 316 196 313 160 q 333 267 319 232 q 407 381 356 333 q 538 429 458 429 q 615 414 581 429 q 670 371 649 399 q 701 305 692 343 q 706 221 710 267 q 678 128 701 171 q 615 53 654 85 q 525 5 576 22 q 414 -12 474 -12 q 289 17 349 -12 q 185 104 229 47 q 119 244 142 161 q 107 433 97 326 q 175 692 119 571 q 315 903 231 813 q 508 1047 400 994 q 732 1099 615 1099 m 501 292 q 437 263 464 292 q 399 193 410 233 q 390 111 388 151 q 411 108 401 108 q 432 108 421 108 q 513 136 472 108 q 560 218 553 164 q 548 271 563 250 q 501 292 533 292 m 2176 722 q 2287 703 2239 722 q 2370 651 2335 683 q 2429 578 2406 619 q 2464 492 2453 536 l 2486 710 l 3103 710 l 3090 567 l 2960 567 l 2907 0 l 2764 0 l 2817 567 l 2603 567 l 2550 0 l 2419 0 l 2439 218 q 2385 483 2454 388 q 2188 578 2317 578 q 2074 555 2126 578 q 1982 492 2022 532 q 1916 399 1942 453 q 1885 285 1890 346 q 1894 185 1878 222 q 1940 126 1910 147 q 1943 196 1939 160 q 1960 267 1947 232 q 2035 381 1983 333 q 2164 429 2086 429 q 2241 414 2207 429 q 2297 371 2275 399 q 2328 305 2318 343 q 2333 221 2338 267 q 2305 128 2329 171 q 2242 53 2281 85 q 2153 5 2204 22 q 2042 -12 2101 -12 q 1922 11 1979 -12 q 1821 78 1864 35 q 1756 183 1778 122 q 1740 319 1733 244 q 1790 488 1749 414 q 1891 615 1831 563 q 2026 694 1951 667 q 2176 722 2100 722 m 2128 292 q 2063 263 2090 292 q 2025 193 2036 233 q 2018 111 2014 149 q 2038 108 2026 108 q 2061 108 2050 108 q 2101 115 2079 108 q 2140 136 2122 122 q 2171 170 2158 150 q 2186 218 2183 190 q 2174 271 2189 250 q 2128 292 2160 292 z "},"ௗ":{"ha":1425,"x_min":88,"x_max":1457,"o":"m 531 722 q 641 703 593 722 q 724 651 689 683 q 783 578 760 619 q 818 492 807 536 l 840 710 l 1457 710 l 1444 567 l 1314 567 l 1261 0 l 1118 0 l 1171 567 l 957 567 l 904 0 l 774 0 l 793 218 q 740 483 808 388 q 542 578 671 578 q 428 555 481 578 q 336 492 376 532 q 270 399 296 453 q 239 285 244 346 q 248 185 232 222 q 294 126 264 147 q 297 196 293 160 q 314 267 301 232 q 389 381 338 333 q 518 429 440 429 q 595 414 561 429 q 651 371 629 399 q 682 305 672 343 q 688 221 692 267 q 659 128 683 171 q 597 53 635 85 q 507 5 558 22 q 396 -12 456 -12 q 276 11 333 -12 q 175 78 218 35 q 110 183 132 122 q 94 319 88 244 q 144 488 103 414 q 245 615 185 563 q 380 694 306 667 q 531 722 454 722 m 482 292 q 417 263 444 292 q 379 193 390 233 q 372 111 368 149 q 392 108 381 108 q 415 108 404 108 q 455 115 433 108 q 494 136 476 122 q 525 170 513 150 q 540 218 538 190 q 528 271 543 250 q 482 292 514 292 z "},"ொ":{"ha":2358,"x_min":97,"x_max":2396,"o":"m 1215 588 q 1277 626 1243 611 q 1347 646 1311 640 q 1348 573 1347 610 q 1349 500 1349 536 q 1285 472 1310 496 l 1215 588 m 1101 401 q 1127 474 1110 439 q 1165 538 1144 510 l 1258 447 q 1242 418 1247 432 q 1231 388 1236 404 l 1101 401 m 1411 644 q 1528 588 1479 633 l 1438 469 q 1382 499 1413 494 l 1411 644 m 1568 535 q 1606 399 1606 474 l 1474 382 q 1469 415 1472 401 q 1457 444 1465 429 l 1568 535 m 1482 140 q 1422 103 1456 118 q 1357 83 1389 88 l 1351 228 q 1384 237 1369 231 q 1414 254 1399 243 l 1482 140 m 1599 328 q 1575 253 1592 289 q 1535 190 1558 218 l 1439 279 q 1458 311 1450 293 q 1469 344 1465 329 l 1599 328 m 1132 192 q 1106 256 1115 219 q 1093 329 1096 292 l 1225 347 q 1231 314 1226 328 q 1242 283 1235 300 l 1132 192 m 1290 83 q 1226 104 1256 89 q 1172 142 1196 119 l 1265 254 q 1318 229 1286 233 l 1290 83 m 732 1099 q 860 1073 807 1099 q 947 1001 914 1047 q 993 889 981 954 q 999 743 1006 824 l 928 0 l 788 0 l 858 744 q 831 901 869 853 q 719 949 792 949 q 574 905 651 949 q 428 785 496 861 q 310 608 360 710 q 250 389 261 506 q 259 224 242 289 q 313 128 276 160 q 316 196 313 160 q 333 267 319 232 q 407 381 356 333 q 538 429 458 429 q 615 414 581 429 q 670 371 649 399 q 701 305 692 343 q 706 221 710 267 q 678 128 701 171 q 615 53 654 85 q 525 5 576 22 q 414 -12 474 -12 q 289 17 349 -12 q 185 104 229 47 q 119 244 142 161 q 107 433 97 326 q 175 692 119 571 q 315 903 231 813 q 508 1047 400 994 q 732 1099 615 1099 m 501 292 q 437 263 464 292 q 399 193 410 233 q 390 111 388 151 q 411 108 401 108 q 432 108 421 108 q 513 136 472 108 q 560 218 553 164 q 548 271 563 250 q 501 292 533 292 m 2396 710 l 2383 567 l 2250 567 l 2197 0 l 2057 0 l 2110 567 l 1900 567 l 1847 0 l 1706 0 l 1774 710 l 2396 710 z "},"ோ":{"ha":2192,"x_min":85,"x_max":2229,"o":"m 1033 588 q 1095 626 1061 611 q 1165 646 1129 640 q 1166 573 1165 610 q 1167 500 1167 536 q 1103 472 1128 496 l 1033 588 m 919 401 q 944 474 928 439 q 983 538 961 510 l 1076 447 q 1049 388 1057 419 l 919 401 m 1229 644 q 1346 588 1297 633 l 1256 469 q 1200 499 1231 494 l 1229 644 m 1386 535 q 1424 399 1424 474 l 1292 382 q 1287 415 1290 401 q 1275 444 1283 429 l 1386 535 m 1300 140 q 1240 103 1274 118 q 1175 83 1207 88 l 1169 228 q 1202 237 1188 231 q 1232 254 1217 243 l 1300 140 m 1417 328 q 1393 253 1410 289 q 1353 190 1376 218 l 1257 279 q 1276 311 1268 293 q 1288 344 1283 329 l 1417 328 m 950 192 q 924 256 933 219 q 911 329 914 292 l 1043 347 q 1049 314 1044 328 q 1060 283 1053 300 l 950 192 m 1108 83 q 1043 104 1074 89 q 990 142 1013 119 l 1083 254 q 1136 229 1104 233 l 1108 83 m 583 1099 q 703 1078 651 1099 q 791 1026 756 1058 q 843 950 826 993 q 856 861 860 907 q 790 729 846 779 q 640 679 735 679 q 564 692 596 679 q 513 728 532 706 q 485 778 493 750 q 479 838 476 807 q 503 916 482 878 q 554 983 524 954 q 451 935 501 972 q 358 838 400 897 q 288 703 317 779 q 251 542 260 628 q 251 392 243 457 q 277 280 258 328 q 324 198 296 232 q 386 142 351 164 q 411 285 385 217 q 492 396 436 353 q 625 439 547 439 q 700 422 667 439 q 756 375 733 404 q 788 306 778 346 q 794 221 799 267 q 766 128 790 171 q 703 53 742 85 q 613 5 664 22 q 501 -12 561 -12 q 344 24 422 -12 q 208 130 267 60 q 117 303 149 200 q 97 542 85 407 q 152 765 108 663 q 261 941 196 867 q 410 1057 326 1015 q 583 1099 493 1099 m 471 200 q 458 117 461 158 q 474 113 465 114 q 492 111 482 113 q 544 114 514 107 q 614 149 586 121 q 646 221 642 176 q 633 281 650 258 q 585 303 617 303 q 513 272 543 303 q 471 200 483 240 m 719 865 q 713 910 721 890 q 689 945 704 931 q 653 969 674 960 q 611 983 633 979 q 581 930 593 960 q 567 874 569 900 q 580 808 563 833 q 633 783 597 783 q 692 806 669 783 q 719 865 715 828 m 2229 710 l 2217 567 l 2082 567 l 2031 0 l 1890 0 l 1943 567 l 1732 567 l 1681 0 l 1539 0 l 1606 710 l 2229 710 z "}}}
